<svg width="261" height="163" viewBox="0 0 261 163" fill="none" xmlns="http://www.w3.org/2000/svg">
<mask id="mask0_702_5260" style="mask-type:alpha" maskUnits="userSpaceOnUse" x="0" y="0" width="261" height="163">
<path d="M24.6402 140.6H21.8475V151.826C21.8475 153.56 21.5501 155.071 20.9554 156.359C20.3606 157.659 19.5267 158.737 18.4535 159.591C17.3933 160.458 16.1327 161.102 14.6717 161.523C13.2106 161.956 11.6203 162.173 9.90072 162.173C9.24132 162.173 8.60778 162.116 8.0001 162.001C7.39242 161.899 6.85585 161.752 6.39039 161.561C5.92493 161.37 5.54998 161.14 5.26553 160.872C4.99402 160.617 4.85826 160.331 4.85826 160.012C4.85826 159.782 4.89058 159.546 4.95523 159.304C5.01988 159.075 5.11685 158.864 5.24614 158.673C5.37543 158.482 5.53059 158.322 5.7116 158.195C5.90554 158.08 6.11887 158.023 6.3516 158.023C6.50676 158.023 6.63605 158.093 6.73948 158.233C6.84292 158.373 6.95282 158.546 7.06918 158.75C7.18555 158.954 7.32131 159.177 7.47646 159.419C7.63161 159.674 7.82555 159.903 8.05828 160.107C8.29101 160.311 8.57546 160.484 8.91162 160.624C9.24779 160.764 9.66799 160.834 10.1722 160.834C11.1678 160.834 12.047 160.656 12.8098 160.299C13.5727 159.942 14.2062 159.438 14.7105 158.788C15.2276 158.15 15.6155 157.379 15.8741 156.474C16.1456 155.581 16.2814 154.593 16.2814 153.509V152.343C15.7383 152.457 15.1888 152.54 14.6329 152.591C14.0898 152.655 13.4757 152.687 12.7904 152.687C11.032 152.687 9.38355 152.426 7.84495 151.903C6.30635 151.367 4.96169 150.545 3.81098 149.436C2.67319 148.326 1.7746 146.911 1.1152 145.19C0.455798 143.469 0.126099 141.416 0.126099 139.032C0.126099 137.374 0.30711 135.844 0.669133 134.442C1.03116 133.039 1.5354 131.777 2.18187 130.655C2.82834 129.52 3.59118 128.526 4.47038 127.671C5.3625 126.817 6.32574 126.103 7.3601 125.529C8.40738 124.956 9.50638 124.522 10.6571 124.229C11.8207 123.936 12.9973 123.789 14.1868 123.789C15.3117 123.789 16.359 123.897 17.3287 124.114C18.2984 124.318 19.1388 124.624 19.8499 125.032C20.5739 125.427 21.1428 125.925 21.5566 126.524C21.9703 127.11 22.1772 127.78 22.1772 128.532C22.1772 128.876 22.1125 129.24 21.9832 129.622C21.8669 129.992 21.6923 130.336 21.4596 130.655C21.2269 130.961 20.9295 131.216 20.5675 131.42C20.2184 131.611 19.8111 131.707 19.3456 131.707C18.7897 131.707 18.3759 131.554 18.1044 131.248C17.8458 130.929 17.6454 130.54 17.5032 130.081C17.3739 129.622 17.2769 129.119 17.2123 128.57C17.1476 128.022 17.0377 127.518 16.8826 127.059C16.7274 126.6 16.4882 126.218 16.165 125.912C15.8547 125.593 15.3957 125.434 14.788 125.434C14.3355 125.434 13.8248 125.542 13.2559 125.759C12.687 125.976 12.1116 126.32 11.5298 126.792C10.948 127.251 10.3726 127.844 9.80375 128.57C9.24779 129.284 8.75001 130.145 8.31041 131.152C7.88374 132.159 7.53464 133.32 7.26312 134.633C7.00454 135.933 6.87524 137.4 6.87524 139.032C6.87524 140.842 6.99161 142.391 7.22434 143.679C7.45707 144.954 7.76091 146.025 8.13586 146.892C8.52374 147.746 8.96334 148.428 9.45466 148.938C9.9589 149.436 10.4761 149.812 11.0062 150.067C11.5363 150.322 12.0599 150.488 12.5771 150.564C13.1072 150.628 13.5921 150.66 14.0317 150.66C14.4842 150.66 14.8979 150.628 15.2729 150.564C15.6478 150.488 15.984 150.386 16.2814 150.258V140.6H12.868V138.898H24.6402V140.6Z" fill="black"/>
<path d="M26.599 142.589C26.599 140.919 26.8447 139.459 27.336 138.209C27.8273 136.947 28.4803 135.895 29.2948 135.054C30.1223 134.212 31.0791 133.581 32.1651 133.16C33.2512 132.74 34.389 132.529 35.5785 132.529C36.768 132.529 37.9058 132.727 38.9919 133.122C40.0779 133.505 41.0282 134.097 41.8428 134.901C42.6703 135.704 43.3297 136.724 43.821 137.961C44.3123 139.185 44.558 140.638 44.558 142.321C44.558 143.991 44.3123 145.47 43.821 146.758C43.3297 148.046 42.6703 149.13 41.8428 150.009C41.0282 150.889 40.0779 151.559 38.9919 152.018C37.9058 152.464 36.768 152.687 35.5785 152.687C34.389 152.687 33.2512 152.477 32.1651 152.056C31.0791 151.622 30.1223 150.985 29.2948 150.143C28.4803 149.302 27.8273 148.25 27.336 146.988C26.8447 145.725 26.599 144.259 26.599 142.589ZM38.5264 142.398C38.5264 141.378 38.4876 140.396 38.41 139.452C38.3454 138.496 38.2096 137.648 38.0028 136.909C37.7959 136.169 37.4985 135.583 37.1106 135.149C36.7228 134.703 36.212 134.48 35.5785 134.48C34.945 134.48 34.4342 134.716 34.0464 135.188C33.6585 135.647 33.3611 136.259 33.1542 137.024C32.9474 137.776 32.8116 138.636 32.747 139.605C32.6823 140.574 32.65 141.569 32.65 142.589C32.65 143.609 32.6823 144.61 32.747 145.592C32.8116 146.561 32.9474 147.428 33.1542 148.193C33.3611 148.958 33.6585 149.576 34.0464 150.048C34.4342 150.507 34.945 150.736 35.5785 150.736C36.212 150.736 36.7228 150.494 37.1106 150.009C37.4985 149.525 37.7959 148.887 38.0028 148.097C38.2096 147.306 38.3454 146.414 38.41 145.419C38.4876 144.425 38.5264 143.418 38.5264 142.398Z" fill="black"/>
<path d="M54.1968 150.698C54.1968 150.864 54.1645 151.061 54.0999 151.291C54.0481 151.52 53.9124 151.737 53.6926 151.941C53.4857 152.145 53.1754 152.317 52.7617 152.457C52.3609 152.61 51.8178 152.687 51.1326 152.687C50.4473 152.687 49.9107 152.604 49.5229 152.438C49.135 152.285 48.8441 152.1 48.6501 151.884C48.4691 151.667 48.3527 151.444 48.301 151.214C48.2622 150.985 48.2428 150.8 48.2428 150.66V125.988C48.2428 125.619 48.1523 125.3 47.9713 125.032C47.8032 124.752 47.5123 124.611 47.0986 124.611C46.8788 124.611 46.6849 124.65 46.5168 124.726C46.3616 124.79 46.1935 124.892 46.0125 125.032L45.6246 124.573C45.922 124.331 46.2517 124.095 46.6137 123.866C46.9758 123.623 47.3701 123.413 47.7968 123.234C48.2364 123.056 48.7018 122.909 49.1932 122.795C49.6845 122.68 50.2016 122.622 50.7447 122.622C51.5851 122.622 52.238 122.737 52.7035 122.967C53.1689 123.183 53.5116 123.458 53.7314 123.789C53.9512 124.108 54.0805 124.452 54.1193 124.822C54.171 125.179 54.1968 125.498 54.1968 125.778V150.698Z" fill="black"/>
<path d="M69.8673 141.996C69.8673 141.856 69.8673 141.575 69.8673 141.155C69.8673 140.721 69.8543 140.23 69.8285 139.682C69.8026 139.121 69.7574 138.528 69.6927 137.903C69.6281 137.279 69.5246 136.698 69.3824 136.163C69.0721 135.768 68.723 135.417 68.3351 135.111C67.9602 134.792 67.4753 134.633 66.8806 134.633C65.8721 134.633 65.1286 135.283 64.6502 136.584C64.1848 137.884 63.9521 139.899 63.9521 142.627C63.9521 143.826 64.0038 144.922 64.1072 145.917C64.2236 146.911 64.3917 147.765 64.6115 148.479C64.8442 149.193 65.1351 149.748 65.4842 150.143C65.8462 150.539 66.2729 150.736 66.7642 150.736C68.8329 150.736 69.8673 147.823 69.8673 141.996ZM69.6345 133.581C69.3889 132.306 69.0462 131.12 68.6066 130.024C68.167 128.915 67.6369 127.958 67.0163 127.155C66.4086 126.352 65.7105 125.721 64.9218 125.262C64.146 124.803 63.3056 124.573 62.4005 124.573C61.8834 124.573 61.4114 124.637 60.9848 124.764C60.571 124.892 60.209 125.045 59.8987 125.223C59.5884 125.389 59.3298 125.555 59.1229 125.721C58.929 125.874 58.7868 125.988 58.6963 126.065L58.192 125.396C58.5023 125 58.8773 124.631 59.3169 124.286C59.7694 123.942 60.2607 123.649 60.7908 123.407C61.3209 123.164 61.8769 122.973 62.4587 122.833C63.0535 122.693 63.6418 122.622 64.2236 122.622C66.1371 122.622 67.8179 123.037 69.266 123.866C70.7141 124.682 71.923 125.842 72.8927 127.346C73.8624 128.851 74.5929 130.668 75.0843 132.797C75.5756 134.926 75.8212 137.291 75.8212 139.892C75.8212 141.996 75.6014 143.845 75.1618 145.439C74.7352 147.032 74.121 148.371 73.3194 149.455C72.5178 150.526 71.5416 151.335 70.3909 151.884C69.2531 152.419 67.9666 152.687 66.5315 152.687C65.5359 152.687 64.521 152.515 63.4866 152.171C62.4652 151.814 61.5343 151.24 60.6939 150.449C59.8664 149.659 59.1876 148.626 58.6575 147.351C58.1274 146.063 57.8623 144.489 57.8623 142.627C57.8623 141.021 58.0886 139.593 58.5411 138.343C59.0066 137.094 59.6272 136.042 60.4029 135.188C61.1787 134.321 62.0773 133.664 63.0987 133.218C64.1201 132.759 65.1997 132.529 66.3375 132.529C66.7771 132.529 67.1715 132.567 67.5206 132.644C67.8697 132.708 68.1735 132.791 68.4321 132.893C68.6907 132.995 68.9169 133.109 69.1109 133.237C69.3048 133.352 69.4794 133.466 69.6345 133.581Z" fill="black"/>
<path d="M84.5486 143.603C84.5486 144.011 84.6068 144.457 84.7231 144.941C84.8524 145.413 85.0334 145.891 85.2662 146.376C85.4989 146.86 85.7833 147.326 86.1195 147.772C86.4686 148.205 86.8629 148.594 87.3026 148.938C87.7551 149.283 88.2529 149.557 88.7959 149.761C89.3389 149.965 89.9337 150.067 90.5801 150.067C91.0327 150.067 91.4529 150.016 91.8408 149.914C92.2286 149.812 92.5907 149.672 92.9268 149.493C93.263 149.315 93.5862 149.111 93.8965 148.881C94.2068 148.639 94.5172 148.384 94.8275 148.116L95.3123 148.575C95.0149 148.97 94.6335 149.404 94.1681 149.876C93.7026 150.347 93.1402 150.794 92.4808 151.214C91.8214 151.622 91.0521 151.967 90.1729 152.247C89.2937 152.515 88.2916 152.649 87.1668 152.649C86.0419 152.649 84.9429 152.451 83.8698 152.056C82.8096 151.648 81.8657 151.042 81.0383 150.239C80.2108 149.436 79.5449 148.435 79.0407 147.236C78.5493 146.038 78.3037 144.635 78.3037 143.029C78.3037 141.869 78.4524 140.804 78.7498 139.835C79.0471 138.866 79.4479 137.993 79.9522 137.215C80.4694 136.437 81.0641 135.755 81.7364 135.168C82.4217 134.582 83.1393 134.097 83.8892 133.715C84.6391 133.32 85.4019 133.026 86.1777 132.835C86.9664 132.631 87.7228 132.529 88.4468 132.529C89.4036 132.529 90.2375 132.631 90.9486 132.835C91.6598 133.039 92.248 133.313 92.7135 133.658C93.1919 134.002 93.5474 134.403 93.7802 134.862C94.0129 135.309 94.1293 135.78 94.1293 136.278C94.1293 136.877 93.9547 137.419 93.6056 137.903C93.2565 138.375 92.7911 138.789 92.2093 139.146L84.5486 143.603ZM88.4468 139.72C88.6149 139.618 88.7506 139.523 88.8541 139.433C88.9704 139.331 89.0609 139.217 89.1256 139.089C89.1902 138.949 89.2355 138.783 89.2614 138.592C89.3001 138.388 89.3195 138.139 89.3195 137.846C89.3195 137.527 89.2807 137.177 89.2032 136.794C89.1385 136.399 89.0222 136.029 88.8541 135.685C88.686 135.341 88.4727 135.054 88.2141 134.824C87.9555 134.595 87.6452 134.48 87.2832 134.48C86.8177 134.48 86.4169 134.62 86.0807 134.901C85.7575 135.168 85.486 135.519 85.2662 135.953C85.0593 136.386 84.8912 136.883 84.7619 137.444C84.6456 137.993 84.5551 138.547 84.4904 139.108C84.4258 139.669 84.387 140.211 84.374 140.734C84.3611 141.244 84.3546 141.677 84.3546 142.034L88.4468 139.72Z" fill="black"/>
<path d="M109.334 142.857C109.334 141.25 109.257 139.969 109.102 139.013C108.959 138.044 108.765 137.31 108.52 136.813C108.274 136.303 108.003 135.972 107.705 135.819C107.408 135.653 107.104 135.57 106.794 135.57C106.419 135.57 106.082 135.672 105.785 135.876C105.501 136.067 105.249 136.29 105.029 136.545C104.822 136.8 104.641 137.055 104.486 137.31C104.343 137.565 104.221 137.757 104.117 137.884V150.66C104.117 150.825 104.091 151.029 104.04 151.272C103.988 151.501 103.859 151.724 103.652 151.941C103.458 152.145 103.16 152.317 102.76 152.457C102.372 152.61 101.835 152.687 101.15 152.687C100.465 152.687 99.9216 152.604 99.5208 152.438C99.1329 152.285 98.8356 152.1 98.6287 151.884C98.4218 151.667 98.2925 151.444 98.2408 151.214C98.1891 150.985 98.1632 150.8 98.1632 150.66V135.895C98.1632 135.525 98.0727 135.207 97.8917 134.939C97.7236 134.658 97.4327 134.518 97.019 134.518C96.7992 134.518 96.6117 134.556 96.4566 134.633C96.3014 134.709 96.1333 134.818 95.9523 134.958L95.545 134.48C95.8424 134.238 96.1721 134.002 96.5341 133.772C96.9091 133.53 97.3099 133.32 97.7366 133.141C98.1632 132.963 98.6222 132.816 99.1135 132.701C99.6049 132.587 100.122 132.529 100.665 132.529C101.505 132.529 102.158 132.669 102.624 132.95C103.089 133.218 103.432 133.543 103.652 133.925C103.872 134.308 104.001 134.709 104.04 135.13C104.091 135.538 104.117 135.882 104.117 136.163C104.596 135.487 105.139 134.882 105.746 134.346C105.992 134.117 106.264 133.893 106.561 133.677C106.871 133.46 107.194 133.269 107.531 133.103C107.88 132.924 108.242 132.784 108.617 132.682C109.005 132.58 109.399 132.529 109.8 132.529C110.679 132.529 111.455 132.695 112.127 133.026C112.812 133.358 113.388 133.913 113.853 134.69C114.319 135.468 114.674 136.501 114.92 137.789C115.165 139.064 115.288 140.651 115.288 142.551C115.288 144.399 115.12 146.006 114.784 147.37C114.448 148.734 114.008 149.895 113.465 150.851C112.922 151.807 112.308 152.585 111.623 153.184C110.937 153.796 110.246 154.274 109.548 154.619C108.849 154.963 108.177 155.199 107.531 155.326C106.897 155.466 106.348 155.543 105.882 155.556L105.669 154.772C106.057 154.682 106.412 154.542 106.735 154.351C107.072 154.16 107.375 153.879 107.647 153.509C107.918 153.14 108.158 152.674 108.365 152.113C108.571 151.539 108.746 150.825 108.888 149.971C109.043 149.117 109.153 148.11 109.218 146.949C109.295 145.776 109.334 144.412 109.334 142.857Z" fill="black"/>
<path d="M149.713 139.223H142.052V149.876C142.052 150.857 141.787 151.571 141.257 152.018C140.74 152.464 139.945 152.687 138.871 152.687C137.785 152.687 136.984 152.464 136.467 152.018C135.949 151.571 135.691 150.857 135.691 149.876V139.223H132.665V137.54H135.691V125.51C135.277 125.549 134.799 125.625 134.256 125.74C133.726 125.842 133.176 125.995 132.607 126.199C132.051 126.39 131.502 126.62 130.959 126.887C130.416 127.155 129.931 127.467 129.504 127.824C129.077 128.181 128.728 128.583 128.457 129.029C128.198 129.463 128.069 129.935 128.069 130.445C128.069 130.853 128.121 131.178 128.224 131.42C128.34 131.662 128.47 131.847 128.612 131.975C128.754 132.089 128.896 132.166 129.039 132.204C129.194 132.23 129.304 132.242 129.368 132.242C129.692 132.242 129.957 132.191 130.163 132.089C130.37 131.975 130.558 131.86 130.726 131.745C130.894 131.618 131.049 131.503 131.191 131.401C131.347 131.286 131.521 131.229 131.715 131.229C131.87 131.229 132.032 131.267 132.2 131.343C132.381 131.407 132.543 131.516 132.685 131.669C132.84 131.822 132.969 132.026 133.073 132.281C133.176 132.523 133.228 132.822 133.228 133.179C133.228 133.689 133.124 134.136 132.917 134.518C132.724 134.888 132.465 135.194 132.142 135.436C131.831 135.678 131.469 135.863 131.056 135.991C130.655 136.106 130.254 136.163 129.853 136.163C129.233 136.163 128.67 136.061 128.166 135.857C127.675 135.64 127.254 135.347 126.905 134.977C126.556 134.607 126.291 134.18 126.11 133.696C125.929 133.199 125.839 132.663 125.839 132.089C125.839 130.598 126.252 129.329 127.08 128.283C127.92 127.238 129.064 126.384 130.513 125.721C131.961 125.045 133.648 124.554 135.574 124.248C137.501 123.942 139.563 123.789 141.761 123.789C142.653 123.789 143.584 123.802 144.554 123.827C145.524 123.84 146.435 123.866 147.288 123.904C148.155 123.942 148.918 123.987 149.577 124.038C150.236 124.089 150.702 124.146 150.973 124.21C151.232 124.274 151.439 124.344 151.594 124.42C151.749 124.497 151.865 124.586 151.943 124.688C152.021 124.79 152.072 124.911 152.098 125.051C152.124 125.179 152.137 125.332 152.137 125.51C152.137 125.663 152.118 125.835 152.079 126.027C152.04 126.205 151.982 126.377 151.904 126.543C151.827 126.696 151.73 126.83 151.613 126.945C151.497 127.059 151.355 127.117 151.187 127.117C151.083 127.117 150.967 127.072 150.838 126.983C150.721 126.894 150.547 126.779 150.314 126.639C150.094 126.498 149.79 126.352 149.402 126.199C149.027 126.046 148.517 125.899 147.87 125.759C147.237 125.619 146.442 125.504 145.485 125.415C144.541 125.325 143.397 125.281 142.052 125.281V137.54H149.713V139.223Z" fill="black"/>
<path d="M159.39 150.698C159.39 150.864 159.358 151.061 159.293 151.291C159.242 151.52 159.106 151.737 158.886 151.941C158.679 152.145 158.369 152.317 157.955 152.457C157.554 152.61 157.011 152.687 156.326 152.687C155.641 152.687 155.104 152.604 154.716 152.438C154.329 152.285 154.038 152.1 153.844 151.884C153.663 151.667 153.546 151.444 153.495 151.214C153.456 150.985 153.436 150.8 153.436 150.66V125.988C153.436 125.619 153.346 125.3 153.165 125.032C152.997 124.752 152.706 124.611 152.292 124.611C152.072 124.611 151.878 124.65 151.71 124.726C151.555 124.79 151.387 124.892 151.206 125.032L150.818 124.573C151.116 124.331 151.445 124.095 151.807 123.866C152.169 123.623 152.564 123.413 152.99 123.234C153.43 123.056 153.895 122.909 154.387 122.795C154.878 122.68 155.395 122.622 155.938 122.622C156.779 122.622 157.432 122.737 157.897 122.967C158.363 123.183 158.705 123.458 158.925 123.789C159.145 124.108 159.274 124.452 159.313 124.822C159.365 125.179 159.39 125.498 159.39 125.778V150.698Z" fill="black"/>
<path d="M163.056 142.589C163.056 140.919 163.302 139.459 163.793 138.209C164.284 136.947 164.937 135.895 165.752 135.054C166.579 134.212 167.536 133.581 168.622 133.16C169.708 132.74 170.846 132.529 172.035 132.529C173.225 132.529 174.363 132.727 175.449 133.122C176.535 133.505 177.485 134.097 178.3 134.901C179.127 135.704 179.787 136.724 180.278 137.961C180.769 139.185 181.015 140.638 181.015 142.321C181.015 143.991 180.769 145.47 180.278 146.758C179.787 148.046 179.127 149.13 178.3 150.009C177.485 150.889 176.535 151.559 175.449 152.018C174.363 152.464 173.225 152.687 172.035 152.687C170.846 152.687 169.708 152.477 168.622 152.056C167.536 151.622 166.579 150.985 165.752 150.143C164.937 149.302 164.284 148.25 163.793 146.988C163.302 145.725 163.056 144.259 163.056 142.589ZM174.983 142.398C174.983 141.378 174.944 140.396 174.867 139.452C174.802 138.496 174.666 137.648 174.46 136.909C174.253 136.169 173.955 135.583 173.567 135.149C173.18 134.703 172.669 134.48 172.035 134.48C171.402 134.48 170.891 134.716 170.503 135.188C170.115 135.647 169.818 136.259 169.611 137.024C169.404 137.776 169.268 138.636 169.204 139.605C169.139 140.574 169.107 141.569 169.107 142.589C169.107 143.609 169.139 144.61 169.204 145.592C169.268 146.561 169.404 147.428 169.611 148.193C169.818 148.958 170.115 149.576 170.503 150.048C170.891 150.507 171.402 150.736 172.035 150.736C172.669 150.736 173.18 150.494 173.567 150.009C173.955 149.525 174.253 148.887 174.46 148.097C174.666 147.306 174.802 146.414 174.867 145.419C174.944 144.425 174.983 143.418 174.983 142.398Z" fill="black"/>
<path d="M208.283 138.592C208.283 137.75 208.225 137.055 208.108 136.507C207.992 135.959 207.863 135.506 207.72 135.149C207.591 134.78 207.468 134.48 207.352 134.25C207.236 134.008 207.177 133.785 207.177 133.581C207.177 133.39 207.255 133.23 207.41 133.103C207.565 132.975 207.746 132.867 207.953 132.778C208.173 132.689 208.393 132.625 208.613 132.587C208.845 132.548 209.033 132.529 209.175 132.529C209.55 132.529 209.822 132.58 209.99 132.682C210.158 132.784 210.293 132.982 210.397 133.275C210.513 133.645 210.591 134.136 210.63 134.748C210.681 135.347 210.707 135.991 210.707 136.679C210.707 137.661 210.649 138.738 210.533 139.911C210.416 141.084 210.229 142.264 209.97 143.45C209.725 144.635 209.401 145.783 209 146.892C208.613 148.001 208.141 148.989 207.585 149.856C207.029 150.711 206.389 151.399 205.665 151.922C204.941 152.432 204.12 152.687 203.202 152.687C202.478 152.687 201.825 152.547 201.243 152.266C200.674 151.973 200.163 151.578 199.711 151.08C199.258 150.583 198.857 150.003 198.508 149.34C198.172 148.664 197.875 147.944 197.616 147.179C197.319 147.957 196.976 148.683 196.588 149.359C196.2 150.022 195.767 150.602 195.289 151.1C194.823 151.597 194.306 151.986 193.737 152.266C193.168 152.547 192.554 152.687 191.895 152.687C191.08 152.687 190.356 152.515 189.723 152.171C189.102 151.814 188.553 151.335 188.074 150.736C187.596 150.124 187.182 149.417 186.833 148.613C186.484 147.81 186.18 146.962 185.922 146.07C185.676 145.177 185.469 144.259 185.301 143.316C185.133 142.372 184.991 141.461 184.874 140.581C184.758 139.701 184.661 138.879 184.583 138.114C184.506 137.349 184.428 136.686 184.351 136.125C184.26 135.615 184.124 135.219 183.943 134.939C183.775 134.658 183.484 134.518 183.071 134.518C182.851 134.518 182.663 134.556 182.508 134.633C182.353 134.709 182.185 134.818 182.004 134.958L181.597 134.48C181.894 134.238 182.224 134.002 182.586 133.772C182.961 133.53 183.361 133.32 183.788 133.141C184.215 132.963 184.674 132.816 185.165 132.701C185.656 132.587 186.174 132.529 186.717 132.529C187.492 132.529 188.12 132.663 188.598 132.931C189.076 133.186 189.451 133.511 189.723 133.906C190.007 134.289 190.208 134.703 190.324 135.149C190.44 135.596 190.524 135.997 190.576 136.354C190.809 138.279 191.035 139.975 191.255 141.441C191.488 142.908 191.733 144.138 191.992 145.133C192.25 146.114 192.528 146.86 192.826 147.37C193.136 147.867 193.498 148.116 193.912 148.116C194.183 148.116 194.448 148.001 194.707 147.772C194.966 147.542 195.211 147.224 195.444 146.816C195.677 146.408 195.897 145.917 196.103 145.343C196.31 144.756 196.491 144.113 196.646 143.411C196.517 142.71 196.407 142.015 196.317 141.327C196.226 140.638 196.142 139.982 196.065 139.357C196 138.719 195.935 138.126 195.871 137.578C195.806 137.03 195.735 136.545 195.657 136.125C195.463 134.926 195.573 134.027 195.987 133.428C196.414 132.829 197.261 132.529 198.528 132.529C199.084 132.529 199.549 132.58 199.924 132.682C200.312 132.771 200.629 132.95 200.874 133.218C201.133 133.473 201.34 133.83 201.495 134.289C201.65 134.735 201.773 135.309 201.863 136.01C202.109 137.922 202.348 139.631 202.581 141.135C202.814 142.64 203.059 143.909 203.318 144.941C203.577 145.974 203.855 146.765 204.152 147.313C204.462 147.848 204.824 148.116 205.238 148.116C205.678 148.116 206.085 147.848 206.46 147.313C206.835 146.777 207.158 146.07 207.43 145.19C207.701 144.31 207.908 143.297 208.05 142.149C208.205 141.002 208.283 139.816 208.283 138.592Z" fill="black"/>
<path d="M219.493 143.603C219.493 144.011 219.551 144.457 219.667 144.941C219.797 145.413 219.978 145.891 220.21 146.376C220.443 146.86 220.727 147.326 221.064 147.772C221.413 148.205 221.807 148.594 222.247 148.938C222.699 149.283 223.197 149.557 223.74 149.761C224.283 149.965 224.878 150.067 225.524 150.067C225.977 150.067 226.397 150.016 226.785 149.914C227.173 149.812 227.535 149.672 227.871 149.493C228.207 149.315 228.53 149.111 228.841 148.881C229.151 148.639 229.461 148.384 229.772 148.116L230.256 148.575C229.959 148.97 229.578 149.404 229.112 149.876C228.647 150.347 228.084 150.794 227.425 151.214C226.765 151.622 225.996 151.967 225.117 152.247C224.238 152.515 223.236 152.649 222.111 152.649C220.986 152.649 219.887 152.451 218.814 152.056C217.754 151.648 216.81 151.042 215.982 150.239C215.155 149.436 214.489 148.435 213.985 147.236C213.493 146.038 213.248 144.635 213.248 143.029C213.248 141.869 213.396 140.804 213.694 139.835C213.991 138.866 214.392 137.993 214.896 137.215C215.413 136.437 216.008 135.755 216.681 135.168C217.366 134.582 218.083 134.097 218.833 133.715C219.583 133.32 220.346 133.026 221.122 132.835C221.91 132.631 222.667 132.529 223.391 132.529C224.348 132.529 225.182 132.631 225.893 132.835C226.604 133.039 227.192 133.313 227.658 133.658C228.136 134.002 228.492 134.403 228.724 134.862C228.957 135.309 229.073 135.78 229.073 136.278C229.073 136.877 228.899 137.419 228.55 137.903C228.201 138.375 227.735 138.789 227.153 139.146L219.493 143.603ZM223.391 139.72C223.559 139.618 223.695 139.523 223.798 139.433C223.915 139.331 224.005 139.217 224.07 139.089C224.134 138.949 224.18 138.783 224.205 138.592C224.244 138.388 224.264 138.139 224.264 137.846C224.264 137.527 224.225 137.177 224.147 136.794C224.083 136.399 223.966 136.029 223.798 135.685C223.63 135.341 223.417 135.054 223.158 134.824C222.9 134.595 222.589 134.48 222.227 134.48C221.762 134.48 221.361 134.62 221.025 134.901C220.702 135.168 220.43 135.519 220.21 135.953C220.003 136.386 219.835 136.883 219.706 137.444C219.59 137.993 219.499 138.547 219.435 139.108C219.37 139.669 219.331 140.211 219.318 140.734C219.305 141.244 219.299 141.677 219.299 142.034L223.391 139.72Z" fill="black"/>
<path d="M239.061 136.565C239.553 135.825 240.076 135.156 240.632 134.556C240.865 134.301 241.117 134.053 241.389 133.811C241.66 133.568 241.938 133.352 242.223 133.16C242.52 132.969 242.824 132.816 243.134 132.701C243.444 132.587 243.755 132.529 244.065 132.529C244.724 132.529 245.242 132.727 245.617 133.122C245.991 133.505 246.179 134.046 246.179 134.748C246.179 135.181 246.14 135.602 246.063 136.01C245.998 136.405 245.862 136.89 245.655 137.463H245.112C245.035 137.068 244.854 136.743 244.569 136.488C244.285 136.22 243.871 136.086 243.328 136.086C242.927 136.086 242.533 136.163 242.145 136.316C241.757 136.456 241.376 136.635 241.001 136.851C240.639 137.068 240.29 137.304 239.953 137.559C239.63 137.814 239.333 138.056 239.061 138.286V150.698C239.061 150.864 239.035 151.061 238.984 151.291C238.932 151.52 238.803 151.737 238.596 151.941C238.402 152.145 238.105 152.317 237.704 152.457C237.316 152.61 236.779 152.687 236.094 152.687C235.409 152.687 234.866 152.604 234.465 152.438C234.077 152.285 233.78 152.1 233.573 151.884C233.366 151.667 233.237 151.444 233.185 151.214C233.133 150.985 233.107 150.8 233.107 150.66V135.895C233.107 135.525 233.017 135.207 232.836 134.939C232.668 134.658 232.377 134.518 231.963 134.518C231.743 134.518 231.556 134.556 231.401 134.633C231.246 134.709 231.077 134.818 230.896 134.958L230.489 134.48C230.787 134.238 231.116 134.002 231.478 133.772C231.853 133.53 232.254 133.32 232.681 133.141C233.107 132.963 233.566 132.816 234.058 132.701C234.549 132.587 235.066 132.529 235.609 132.529C236.165 132.529 236.637 132.606 237.025 132.759C237.426 132.899 237.749 133.09 237.995 133.332C238.253 133.562 238.454 133.823 238.596 134.117C238.738 134.41 238.842 134.709 238.906 135.015C238.984 135.309 239.029 135.596 239.042 135.876C239.055 136.144 239.061 136.373 239.061 136.565Z" fill="black"/>
<path d="M254.887 134.059C254.59 134.059 254.305 134.097 254.034 134.174C253.775 134.25 253.542 134.378 253.335 134.556C253.129 134.722 252.967 134.939 252.851 135.207C252.734 135.462 252.676 135.768 252.676 136.125C252.676 136.622 252.857 137.119 253.219 137.616C253.594 138.101 254.053 138.611 254.596 139.146C255.152 139.669 255.747 140.217 256.38 140.791C257.027 141.352 257.621 141.951 258.165 142.589C258.72 143.214 259.179 143.883 259.542 144.597C259.916 145.311 260.104 146.076 260.104 146.892C260.104 147.81 259.942 148.626 259.619 149.34C259.309 150.054 258.856 150.66 258.261 151.157C257.68 151.654 256.969 152.037 256.128 152.304C255.301 152.559 254.376 152.687 253.355 152.687C252.463 152.687 251.655 152.566 250.931 152.324C250.206 152.069 249.56 151.763 248.991 151.406C248.435 151.036 247.957 150.647 247.556 150.239C247.155 149.831 246.845 149.461 246.625 149.13L247.304 148.652C247.472 148.843 247.685 149.053 247.944 149.283C248.202 149.499 248.487 149.703 248.797 149.895C249.12 150.086 249.463 150.245 249.825 150.373C250.187 150.488 250.556 150.545 250.931 150.545C251.861 150.545 252.624 150.328 253.219 149.895C253.814 149.448 254.111 148.792 254.111 147.925C254.111 147.44 253.95 146.943 253.626 146.433C253.303 145.91 252.896 145.375 252.404 144.827C251.913 144.278 251.383 143.711 250.814 143.124C250.245 142.538 249.715 141.932 249.224 141.308C248.733 140.683 248.325 140.039 248.002 139.376C247.679 138.713 247.517 138.024 247.517 137.31C247.517 136.507 247.679 135.806 248.002 135.207C248.338 134.607 248.778 134.11 249.321 133.715C249.877 133.32 250.504 133.026 251.202 132.835C251.913 132.631 252.644 132.529 253.394 132.529C254.26 132.529 255.049 132.606 255.76 132.759C256.471 132.912 257.078 133.148 257.583 133.466C258.1 133.772 258.494 134.161 258.766 134.633C259.05 135.105 259.192 135.653 259.192 136.278C259.192 136.762 259.031 137.183 258.708 137.54C258.384 137.897 257.932 138.075 257.35 138.075C256.794 138.075 256.367 137.961 256.07 137.731C255.786 137.489 255.643 137.164 255.643 136.756C255.643 136.488 255.708 136.278 255.837 136.125C255.979 135.972 256.135 135.851 256.303 135.761C256.471 135.659 256.619 135.576 256.749 135.513C256.891 135.436 256.962 135.341 256.962 135.226C256.962 134.869 256.768 134.588 256.38 134.384C255.992 134.168 255.495 134.059 254.887 134.059Z" fill="black"/>
<path fill-rule="evenodd" clip-rule="evenodd" d="M120.319 36.7521C118.702 37.021 114.78 32.1815 114.732 26.6779C114.68 20.2158 123.194 10.8526 126.993 6.67554C127.87 5.71051 128.496 5.0223 128.706 4.71065C129.987 2.82865 130.067 0.408936 130.067 0.408936C130.067 0.408936 129.971 2.82865 131.251 4.71065C131.462 5.0223 132.087 5.71048 132.965 6.67548L132.965 6.67554C136.763 10.8525 145.277 20.2158 145.225 26.6779C145.177 32.1657 141.256 37.021 139.639 36.7521C139.287 36.3726 132.244 23.9577 129.971 16.6036C129.971 16.6036 120.687 36.3726 120.319 36.7521ZM157.915 22.8724L157.915 22.8724L157.915 22.8723C160.026 21.2123 161.697 19.8991 162.769 18.549C162.547 20.3877 162.633 25.9471 162.695 29.9775L162.695 29.9788C162.718 31.4598 162.737 32.7343 162.737 33.5417C162.737 34.2697 162.682 35.0068 162.628 35.7392L162.628 35.7413C162.61 35.9787 162.593 36.2157 162.577 36.4517C162.497 37.7644 161.665 38.5868 160.656 39.2984C160.369 39.5015 160.08 39.7041 159.792 39.9068L159.788 39.9099L159.784 39.9129L159.784 39.913L159.783 39.913L159.783 39.9131L159.783 39.9132L159.783 39.9132L159.783 39.9133L159.783 39.9133L159.783 39.9134C158.278 40.9715 156.772 42.0311 155.31 43.1573C154.115 44.0746 152.962 45.0482 151.81 46.0217C151.234 46.5084 150.657 46.9952 150.076 47.4749C149.66 47.8228 149.211 48.1707 148.747 48.4554C147.803 49.0248 146.746 48.7717 146.17 47.7754C145.018 45.7826 143.897 43.7583 142.825 41.7023C142.617 41.307 142.585 40.6744 142.745 40.2632C143.289 38.9031 143.945 37.5904 144.634 36.2936C145.162 35.2972 145.77 34.3325 146.442 33.431C150.873 28.4074 154.857 25.2763 157.915 22.8724ZM129.987 86.8522C128.915 86.8363 127.522 86.7414 126.434 86.5675C122.864 85.9981 119.791 84.3692 117.358 81.6964C115.405 79.5456 113.932 77.0784 112.86 74.3898C111.467 70.9105 110.875 67.2888 111.419 63.5723C111.755 61.3423 112.268 59.1282 112.876 56.9615C113.996 52.9761 115.453 49.0856 117.598 45.5272C119.311 42.6805 129.907 23.0064 129.971 22.8641C130.035 23.0064 140.632 42.6805 142.344 45.5272C144.505 49.0856 145.946 52.9761 147.066 56.9615C147.675 59.1282 148.203 61.3423 148.523 63.5723C149.067 67.2888 148.475 70.9105 147.082 74.3898C146.01 77.0784 144.553 79.5456 142.584 81.6964C140.151 84.3692 137.078 85.9981 133.509 86.5675C132.436 86.7414 131.06 86.8363 129.987 86.8522ZM154.013 83.4217C156.638 82.536 159.007 81.1285 161.2 79.4204C165.314 76.2258 168.355 72.2245 170.068 67.3377C170.942 64.859 171.611 62.3034 172.281 59.7459L172.281 59.7447L172.281 59.7435L172.282 59.7423L172.282 59.7411L172.282 59.7399L172.283 59.7387L172.283 59.7375L172.283 59.7363L172.284 59.7351L172.284 59.7343L172.284 59.7336C172.472 59.0152 172.66 58.2967 172.853 57.5797C173.765 54.1953 174.086 50.7159 174.278 47.2208C174.374 45.576 174.662 43.9313 175.03 42.3181C175.366 40.8315 179.096 35.3911 179.096 35.3911C179.096 35.3911 173.413 35.7548 166.786 39.0602C164.722 40.2938 162.689 41.5906 160.704 42.9507C158.655 44.3583 151.964 49.6247 150.732 50.9057C150.573 51.0703 150.427 51.2181 150.294 51.3531L150.294 51.3533C149.097 52.5673 148.92 52.7469 149.611 54.7963C150.412 57.1685 151.132 59.5882 151.596 62.0238C152.396 66.3255 152.316 70.6588 151.26 74.8973C149.983 79.2827 147.986 82.0691 146.778 83.7556C146.457 84.2039 146.191 84.5744 146.01 84.8767C145.882 85.1139 152.124 84.0701 154.013 83.4217ZM154.886 87.7411C155.463 87.5363 156.039 87.3316 156.622 87.1552C156.666 87.1413 156.724 87.1216 156.795 87.0974C157.852 86.7371 161.838 85.3778 168.003 87.171C181.16 92.2003 187.083 101.231 187.083 101.231C187.083 101.231 178.952 100.899 176.631 101.326C175.787 101.478 174.959 101.691 174.13 101.905C173.494 102.068 172.858 102.232 172.213 102.369C171.988 102.416 171.762 102.465 171.537 102.513L171.536 102.513L171.536 102.513C170.46 102.745 169.376 102.979 168.291 103.018C166.386 103.081 164.465 103.034 162.561 102.86C160.832 102.701 159.071 102.448 157.406 101.958C155.614 101.436 153.885 100.661 152.172 99.8706C151.004 99.3329 146.554 95.3158 145.529 93.9241L145.327 93.6498C144.755 92.8739 144.188 92.1053 143.673 91.2988C143.112 90.4131 143.336 89.9703 144.377 89.8122C145.124 89.7 145.872 89.5961 146.618 89.4923L146.621 89.492L146.621 89.492C148.4 89.2448 150.174 88.9982 151.932 88.6418C152.938 88.4332 153.912 88.0872 154.886 87.7411ZM178.504 49.4351C183.418 45.7027 188.956 43.3621 195.071 42.4448C197.424 42.0811 202.978 41.8913 203.17 42.0336L203.123 42.0526C202.304 42.3816 198.41 43.9454 193.534 49.9254C192.195 51.6386 191.29 53.5849 190.382 55.5374L190.382 55.5377C190.259 55.802 190.136 56.0665 190.012 56.3305C189.197 58.0508 188.511 59.6494 187.861 61.1623C185.771 66.0335 184.061 70.0164 179.64 74.3123C177.751 76.131 165.57 81.2235 165.57 81.2235C165.57 81.2235 171.284 72.2563 171.589 71.0069L178.504 49.4351ZM170.05 82.7957L170.039 82.802C169.088 83.3213 168.134 83.8426 167.17 84.3698C167.194 84.3764 167.271 84.3932 167.393 84.4201L167.394 84.4204L167.394 84.4204C168.756 84.7208 175.777 86.27 179.096 88.7506C179.368 88.9562 179.912 89.0195 180.248 88.893L182.169 87.8808C182.731 87.6215 183.31 87.4002 183.889 87.1787L183.889 87.1786L183.89 87.1786C184.299 87.0218 184.71 86.865 185.114 86.6947L185.477 86.5385L185.478 86.538L185.478 86.5379C187.231 85.7832 188.995 85.0241 190.716 84.1959C191.613 83.7689 192.445 83.1837 193.262 82.5985C193.742 82.2506 193.678 81.7603 193.149 81.444C192.877 81.2859 192.573 81.1752 192.253 81.1119C191.945 81.0551 191.637 80.9961 191.329 80.9372L191.329 80.9372L191.329 80.9371L191.329 80.9371L191.329 80.9371L191.329 80.9371L191.329 80.937L191.328 80.937C190.179 80.717 189.028 80.4966 187.867 80.3844C184.618 80.0523 181.368 79.736 178.103 79.5462C177.388 79.5062 176.638 79.7248 175.912 79.9365C175.777 79.9759 175.643 80.0151 175.51 80.0523C175.098 80.1702 174.708 80.3462 174.32 80.5212C174.135 80.6045 173.951 80.6875 173.765 80.764C172.526 81.4434 171.291 82.1178 170.05 82.7957ZM113.18 83.7726C113.501 84.2209 113.767 84.5915 113.948 84.8937C114.076 85.1151 107.834 84.0713 105.945 83.4387C103.32 82.5531 100.951 81.1455 98.7578 79.4375C94.644 76.227 91.6027 72.2258 89.89 67.3547C89.0129 64.854 88.3418 62.2952 87.6694 59.7313L87.6693 59.7309L87.6692 59.7305L87.6691 59.73L87.6689 59.7296L87.6688 59.7292L87.6687 59.7287C87.4823 59.0181 87.2959 58.3071 87.1048 57.5968C86.2085 54.2123 85.8883 50.733 85.6802 47.2379C85.5842 45.5931 85.2801 43.9483 84.9279 42.3352C84.6078 40.8644 80.8622 35.4082 80.8622 35.4082C80.8622 35.4082 86.5446 35.7719 93.1714 39.0773C95.2363 40.3108 97.2692 41.6077 99.254 42.9678C101.287 44.3753 107.994 49.6418 109.226 50.9228C109.391 51.0933 109.541 51.2457 109.678 51.3843C110.862 52.5829 111.035 52.7579 110.347 54.8133C109.546 57.1698 108.826 59.5895 108.362 62.0408C107.562 66.3267 107.642 70.6601 108.698 74.9144C109.975 79.2998 111.972 82.0862 113.18 83.7726ZM91.9544 87.1545C78.7969 92.1995 72.8744 101.214 72.8744 101.214C72.8744 101.214 81.0058 100.882 83.3268 101.309C84.1825 101.464 85.0277 101.681 85.8714 101.898C86.4954 102.058 87.1186 102.218 87.7447 102.353C87.969 102.399 88.1939 102.448 88.4192 102.496L88.4196 102.496L88.42 102.496L88.4204 102.497L88.4213 102.497C89.4969 102.728 90.5816 102.962 91.6663 103.001C93.5711 103.08 95.4919 103.033 97.3968 102.843C99.1255 102.685 100.886 102.432 102.551 101.942C104.344 101.42 106.088 100.629 107.785 99.854C108.954 99.3163 113.404 95.2993 114.428 93.9076C115.068 93.0535 115.709 92.1837 116.285 91.2822C116.845 90.3966 116.605 89.9538 115.58 89.7956C114.818 89.6805 114.053 89.574 113.287 89.4675C111.528 89.2229 109.765 88.9778 108.025 88.6253C107.02 88.4166 106.046 88.0706 105.071 87.7246L105.071 87.7245L105.071 87.7245L105.071 87.7244L105.071 87.7244L105.071 87.7243L105.07 87.7243C104.494 87.5196 103.918 87.315 103.335 87.1387C103.283 87.1234 103.212 87.1001 103.123 87.0707L103.122 87.0704L103.122 87.0703C102.007 86.7032 98.0432 85.398 91.9544 87.1545ZM64.8873 42.4448C71.0019 43.3621 76.5402 45.7027 81.4543 49.4351L88.3692 71.0069C88.6734 72.2563 94.3878 81.2235 94.3878 81.2235C94.3878 81.2235 82.2066 76.131 80.3178 74.3123C75.8966 70.0164 74.1871 66.0335 72.0965 61.1624C71.4471 59.6494 70.761 58.0508 69.9454 56.3305C69.8214 56.0667 69.6986 55.8024 69.5758 55.5382L69.5756 55.5378C68.668 53.5852 67.7633 51.6387 66.4239 49.9254C61.5476 43.9455 57.6542 42.3816 56.8351 42.0526L56.8351 42.0526H56.8351H56.835H56.835L56.7878 42.0336C56.9799 41.8913 62.5343 42.0811 64.8873 42.4448ZM97.2369 33.5417C97.2369 34.2698 97.2916 35.0069 97.346 35.7394C97.3636 35.9775 97.3813 36.2151 97.397 36.4517C97.493 37.7644 98.3254 38.5868 99.3178 39.2984C99.8225 39.6591 100.33 40.016 100.837 40.3727L100.838 40.3733L100.838 40.3739C102.132 41.2837 103.423 42.192 104.664 43.1573C105.859 44.0851 107.012 45.0551 108.164 46.0251L108.164 46.0252C108.741 46.5102 109.317 46.9952 109.898 47.4749C110.314 47.8228 110.763 48.1707 111.227 48.4554C112.171 49.0248 113.228 48.7717 113.804 47.7754C114.956 45.7668 116.077 43.7425 117.149 41.7023C117.357 41.307 117.389 40.6744 117.229 40.2632C116.669 38.9031 116.029 37.5904 115.341 36.2936C114.812 35.2972 114.22 34.3325 113.532 33.431C109.096 28.413 105.119 25.2833 102.065 22.8805L102.065 22.8805L102.065 22.8805C99.9505 21.2166 98.2789 19.9013 97.2049 18.549C97.407 20.313 97.3334 25.5012 97.277 29.4788V29.4791C97.253 31.1716 97.2321 32.6448 97.2369 33.5417ZM89.9193 82.8022C88.6743 82.1221 87.4359 81.4456 86.1924 80.764C86.0067 80.6876 85.8227 80.6046 85.6382 80.5213L85.638 80.5212C85.25 80.3462 84.8598 80.1702 84.4476 80.0523C84.3152 80.0153 84.1816 79.9763 84.0471 79.9371L84.0452 79.9365C83.3192 79.7248 82.5698 79.5062 81.8545 79.5462C78.5892 79.736 75.3398 80.0523 72.0904 80.3844C70.929 80.4967 69.7775 80.7171 68.6282 80.9372C68.3202 80.9961 68.0124 81.0551 67.7045 81.1119C67.3844 81.1752 67.0803 81.2859 66.8082 81.444C66.2799 81.7603 66.2159 82.2506 66.6961 82.5985C67.5125 83.1837 68.3448 83.7689 69.2412 84.1959C70.9631 85.0243 72.7271 85.7836 74.4807 86.5384L74.8436 86.6947C75.248 86.865 75.6578 87.0217 76.0675 87.1784L76.0681 87.1786L76.0682 87.1786L76.0682 87.1786C76.6475 87.4001 77.2264 87.6215 77.7888 87.8808L79.7096 88.893C80.0458 89.0195 80.59 88.9562 80.8621 88.7506C84.1803 86.27 91.2021 84.7208 92.5637 84.4204L92.5638 84.4204L92.5649 84.4202C92.6871 84.3932 92.7634 84.3764 92.7872 84.3698C91.8239 83.8426 90.8697 83.3214 89.9193 82.8022ZM125.745 89.7801C127.057 90.0173 128.674 90.1122 129.987 90.1122C131.299 90.1122 132.9 90.0173 134.26 89.7801C134.613 89.7168 135.013 89.701 135.349 89.7959C139.03 90.8555 141.736 93.1171 143.272 96.5806C145.657 101.942 143.96 106.876 139.751 110.419C139.046 111.004 136.421 112.475 135.861 112.665C134.212 113.234 132.868 114.246 131.763 115.559C131.409 115.982 130.587 118.453 130.205 119.604C130.086 119.96 130.01 120.189 130.003 120.193C129.995 120.189 129.92 119.962 129.803 119.61C129.422 118.459 128.597 115.971 128.242 115.559C127.137 114.262 125.793 113.234 124.144 112.665C123.568 112.459 120.959 111.004 120.254 110.419C116.029 106.876 114.348 101.942 116.733 96.5806C118.27 93.1171 120.975 90.8713 124.656 89.7959C124.992 89.701 125.393 89.7168 125.745 89.7801Z" fill="white"/>
</mask>
<g mask="url(#mask0_702_5260)">
<rect width="340.004" height="209.877" transform="matrix(0.991591 -0.12941 0.132295 0.99121 -56.9801 7.56323)" fill="url(#paint0_linear_702_5260)"/>
<rect width="340.004" height="209.877" transform="matrix(0.991591 -0.12941 0.132295 0.99121 -56.9801 7.56323)" fill="url(#paint1_linear_702_5260)" style="mix-blend-mode:overlay"/>
<rect width="340.004" height="209.877" transform="matrix(0.991591 -0.12941 0.132295 0.99121 -56.9801 7.56323)" fill="#C1A875" style="mix-blend-mode:color"/>
</g>
<defs>
<linearGradient id="paint0_linear_702_5260" x1="18.851" y1="131.265" x2="311.24" y2="20.3055" gradientUnits="userSpaceOnUse">
<stop stop-color="#576265"/>
<stop offset="0.172016" stop-color="#9EA1A1"/>
<stop offset="0.45741" stop-color="#C7CACA"/>
<stop offset="0.553567" stop-color="#7B8487"/>
<stop offset="0.776065" stop-color="#C0C0C0"/>
<stop offset="0.925155" stop-color="#757A7B"/>
<stop offset="1" stop-color="#B6BABB"/>
</linearGradient>
<linearGradient id="paint1_linear_702_5260" x1="135.727" y1="104.939" x2="107.663" y2="-13.7105" gradientUnits="userSpaceOnUse">
<stop stop-color="white" stop-opacity="0"/>
<stop offset="1" stop-color="white"/>
</linearGradient>
</defs>
</svg>
