<svg width="129" height="81" viewBox="0 0 129 81" fill="none" xmlns="http://www.w3.org/2000/svg">
<mask id="mask0_501_8220" style="mask-type:alpha" maskUnits="userSpaceOnUse" x="0" y="0" width="129" height="81">
<path d="M12.6753 69.9433H11.2961V75.4845C11.2961 76.3404 11.1492 77.0862 10.8555 77.7218C10.5617 78.3637 10.1499 78.8955 9.61986 79.3171C9.09624 79.7451 8.47365 80.0629 7.75209 80.2705C7.03052 80.4845 6.2451 80.5915 5.39583 80.5915C5.07016 80.5915 4.75727 80.5632 4.45715 80.5065C4.15703 80.4562 3.89203 80.3838 3.66215 80.2894C3.43227 80.195 3.24709 80.0817 3.10661 79.9496C2.97251 79.8237 2.90547 79.6821 2.90547 79.5248C2.90547 79.4115 2.92143 79.2951 2.95336 79.1755C2.98529 79.0622 3.03318 78.9584 3.09703 78.864C3.16089 78.7696 3.23751 78.6909 3.32691 78.628C3.42269 78.5714 3.52806 78.543 3.643 78.543C3.71962 78.543 3.78348 78.5777 3.83456 78.6469C3.88565 78.7161 3.93992 78.8011 3.99739 78.9018C4.05486 79.0024 4.12191 79.1126 4.19854 79.2322C4.27516 79.358 4.37095 79.4713 4.48589 79.572C4.60083 79.6727 4.74131 79.7576 4.90733 79.8269C5.07336 79.8961 5.28089 79.9307 5.52992 79.9307C6.02161 79.9307 6.45582 79.8426 6.83257 79.6664C7.20932 79.4902 7.52221 79.2416 7.77125 78.9206C8.02667 78.606 8.21823 78.2252 8.34594 77.7784C8.48004 77.3379 8.54709 76.8502 8.54709 76.3152V75.7394C8.27889 75.796 8.00751 75.8369 7.73293 75.8621C7.46474 75.8936 7.16143 75.9093 6.82299 75.9093C5.95456 75.9093 5.1404 75.7803 4.38052 75.5223C3.62065 75.258 2.95655 74.852 2.38824 74.3045C1.82631 73.757 1.38252 73.0585 1.05685 72.2089C0.731191 71.3593 0.568359 70.3461 0.568359 69.1692C0.568359 68.3511 0.657757 67.5959 0.836552 66.9037C1.01535 66.2114 1.26438 65.5884 1.58366 65.0346C1.90294 64.4745 2.27968 63.9836 2.7139 63.562C3.1545 63.1403 3.63022 62.7879 4.14107 62.5047C4.6583 62.2215 5.20107 62.0075 5.76938 61.8628C6.34408 61.718 6.92516 61.6457 7.51263 61.6457C8.06817 61.6457 8.5854 61.6991 9.06432 61.8061C9.54323 61.9068 9.95829 62.0579 10.3095 62.2592C10.6671 62.4543 10.948 62.6998 11.1524 62.9956C11.3567 63.285 11.4589 63.6154 11.4589 63.9867C11.4589 64.1567 11.427 64.336 11.3631 64.5248C11.3056 64.7073 11.2194 64.8772 11.1045 65.0346C10.9896 65.1856 10.8427 65.3115 10.6639 65.4122C10.4915 65.5066 10.2903 65.5538 10.0605 65.5538C9.78588 65.5538 9.58154 65.4782 9.44745 65.3272C9.31974 65.1699 9.22076 64.9779 9.15052 64.7514C9.08667 64.5248 9.03877 64.2762 9.00685 64.0056C8.97492 63.735 8.92064 63.4864 8.84402 63.2599C8.76739 63.0333 8.64926 62.8445 8.48962 62.6935C8.33636 62.5362 8.10968 62.4575 7.80956 62.4575C7.58606 62.4575 7.33384 62.511 7.05287 62.618C6.77191 62.7249 6.48775 62.8949 6.2004 63.1277C5.91305 63.3543 5.6289 63.6469 5.34793 64.0056C5.07336 64.358 4.82751 64.7828 4.6104 65.28C4.39968 65.7772 4.22727 66.3499 4.09318 66.9981C3.96547 67.64 3.90161 68.3637 3.90161 69.1692C3.90161 70.0629 3.95908 70.8275 4.07402 71.4631C4.18896 72.0925 4.33902 72.6211 4.5242 73.049C4.71577 73.4707 4.93287 73.8074 5.17552 74.0591C5.42456 74.3045 5.67998 74.4902 5.94179 74.6161C6.2036 74.7419 6.46221 74.8237 6.71763 74.8615C6.97944 74.893 7.2189 74.9087 7.436 74.9087C7.6595 74.9087 7.86384 74.893 8.04902 74.8615C8.2342 74.8237 8.40022 74.7734 8.54709 74.7105V69.9433H6.86131V69.1032H12.6753V69.9433Z" fill="black"/>
<path d="M13.6427 70.9251C13.6427 70.1006 13.7641 69.3801 14.0067 68.7633C14.2494 68.1403 14.5718 67.6211 14.9741 67.2057C15.3828 66.7904 15.8553 66.4789 16.3917 66.2712C16.9281 66.0635 17.49 65.9597 18.0775 65.9597C18.665 65.9597 19.2269 66.0572 19.7633 66.2523C20.2997 66.4411 20.769 66.7338 21.1713 67.1302C21.58 67.5267 21.9056 68.0302 22.1483 68.6406C22.3909 69.2448 22.5123 69.9622 22.5123 70.7929C22.5123 71.6173 22.3909 72.3473 22.1483 72.983C21.9056 73.6186 21.58 74.1535 21.1713 74.5877C20.769 75.022 20.2997 75.3524 19.7633 75.5789C19.2269 75.7992 18.665 75.9093 18.0775 75.9093C17.49 75.9093 16.9281 75.8055 16.3917 75.5978C15.8553 75.3838 15.3828 75.0692 14.9741 74.6538C14.5718 74.2385 14.2494 73.7193 14.0067 73.0962C13.7641 72.4732 13.6427 71.7495 13.6427 70.9251ZM19.5334 70.8307C19.5334 70.3272 19.5142 69.8426 19.4759 69.3769C19.444 68.9049 19.377 68.4864 19.2748 68.1214C19.1726 67.7564 19.0258 67.4669 18.8342 67.2529C18.6426 67.0327 18.3904 66.9225 18.0775 66.9225C17.7646 66.9225 17.5124 67.039 17.3208 67.2718C17.1292 67.4984 16.9824 67.8005 16.8802 68.1781C16.778 68.5494 16.711 68.9741 16.6791 69.4524C16.6471 69.9307 16.6312 70.4216 16.6312 70.9251C16.6312 71.4285 16.6471 71.9225 16.6791 72.4071C16.711 72.8854 16.778 73.3133 16.8802 73.6909C16.9824 74.0685 17.1292 74.3738 17.3208 74.6066C17.5124 74.8332 17.7646 74.9464 18.0775 74.9464C18.3904 74.9464 18.6426 74.8269 18.8342 74.5877C19.0258 74.3486 19.1726 74.0339 19.2748 73.6437C19.377 73.2536 19.444 72.813 19.4759 72.3222C19.5142 71.8313 19.5334 71.3341 19.5334 70.8307Z" fill="black"/>
<path d="M27.2727 74.9276C27.2727 75.0094 27.2567 75.1069 27.2248 75.2202C27.1992 75.3335 27.1322 75.4405 27.0236 75.5412C26.9215 75.6419 26.7682 75.7268 26.5639 75.796C26.3659 75.8716 26.0977 75.9093 25.7593 75.9093C25.4209 75.9093 25.1559 75.8684 24.9643 75.7866C24.7727 75.7111 24.6291 75.6198 24.5333 75.5128C24.4439 75.4059 24.3864 75.2957 24.3609 75.1824C24.3417 75.0692 24.3321 74.9779 24.3321 74.9087V62.7312C24.3321 62.5487 24.2874 62.3914 24.198 62.2592C24.115 62.1208 23.9714 62.0516 23.767 62.0516C23.6585 62.0516 23.5627 62.0705 23.4797 62.1082C23.403 62.1397 23.32 62.19 23.2306 62.2592L23.0391 62.0327C23.1859 61.9131 23.3488 61.7967 23.5276 61.6834C23.7064 61.5638 23.9011 61.46 24.1118 61.3719C24.3289 61.2838 24.5588 61.2114 24.8015 61.1548C25.0441 61.0981 25.2995 61.0698 25.5677 61.0698C25.9828 61.0698 26.3053 61.1265 26.5351 61.2397C26.765 61.3467 26.9342 61.482 27.0428 61.6457C27.1514 61.803 27.2152 61.9729 27.2344 62.1554C27.2599 62.3316 27.2727 62.489 27.2727 62.6274V74.9276Z" fill="black"/>
<path d="M35.0119 70.6324C35.0119 70.5632 35.0119 70.4247 35.0119 70.2171C35.0119 70.0031 35.0056 69.7608 34.9928 69.4902C34.98 69.2133 34.9577 68.9207 34.9257 68.6123C34.8938 68.3039 34.8427 68.0176 34.7725 67.7533C34.6192 67.5582 34.4468 67.3851 34.2553 67.2341C34.0701 67.0767 33.8306 66.9981 33.5369 66.9981C33.0388 66.9981 32.6716 67.319 32.4354 67.9609C32.2055 68.6028 32.0906 69.5972 32.0906 70.9439C32.0906 71.5355 32.1161 72.0767 32.1672 72.5676C32.2247 73.0585 32.3077 73.4801 32.4162 73.8325C32.5312 74.185 32.6748 74.4587 32.8472 74.6538C33.026 74.8489 33.2368 74.9464 33.4794 74.9464C34.5011 74.9464 35.0119 73.5084 35.0119 70.6324ZM34.897 66.4789C34.7757 65.8495 34.6065 65.2643 34.3894 64.7231C34.1722 64.1755 33.9104 63.7036 33.6039 63.3071C33.3038 62.9106 32.959 62.5991 32.5695 62.3725C32.1863 62.146 31.7713 62.0327 31.3243 62.0327C31.0689 62.0327 30.8358 62.0642 30.6251 62.1271C30.4207 62.19 30.2419 62.2655 30.0887 62.3536C29.9354 62.4355 29.8077 62.5173 29.7056 62.5991C29.6098 62.6746 29.5395 62.7312 29.4948 62.769L29.2458 62.4386C29.3991 62.2435 29.5842 62.061 29.8013 61.8911C30.0248 61.7212 30.2675 61.5764 30.5293 61.4569C30.7911 61.3373 31.0657 61.2429 31.353 61.1737C31.6468 61.1044 31.9373 61.0698 32.2247 61.0698C33.1697 61.0698 33.9998 61.2744 34.715 61.6834C35.4302 62.0862 36.0272 62.6589 36.5062 63.4015C36.9851 64.1441 37.3459 65.0409 37.5885 66.0918C37.8312 67.1428 37.9525 68.3102 37.9525 69.594C37.9525 70.6324 37.8439 71.5449 37.6268 72.3316C37.4161 73.1183 37.1128 73.779 36.7169 74.314C36.321 74.8426 35.8389 75.2422 35.2706 75.5128C34.7086 75.7772 34.0733 75.9093 33.3645 75.9093C32.8728 75.9093 32.3715 75.8244 31.8607 75.6544C31.3562 75.4782 30.8965 75.195 30.4814 74.8048C30.0727 74.4147 29.7375 73.9049 29.4757 73.2756C29.2139 72.64 29.083 71.8628 29.083 70.9439C29.083 70.151 29.1947 69.4461 29.4182 68.8294C29.6481 68.2127 29.9546 67.6935 30.3377 67.2718C30.7209 66.8439 31.1647 66.5198 31.6691 66.2995C32.1736 66.073 32.7068 65.9597 33.2687 65.9597C33.4858 65.9597 33.6806 65.9786 33.853 66.0163C34.0254 66.0478 34.1754 66.0887 34.3032 66.139C34.4309 66.1894 34.5426 66.246 34.6384 66.309C34.7342 66.3656 34.8204 66.4222 34.897 66.4789Z" fill="black"/>
<path d="M42.2627 71.4254C42.2627 71.6268 42.2915 71.847 42.3489 72.0862C42.4128 72.319 42.5022 72.555 42.6171 72.7942C42.7321 73.0333 42.8725 73.263 43.0386 73.4833C43.211 73.6972 43.4057 73.8892 43.6228 74.0591C43.8463 74.229 44.0922 74.3643 44.3604 74.465C44.6286 74.5657 44.9223 74.6161 45.2416 74.6161C45.4651 74.6161 45.6726 74.5909 45.8642 74.5405C46.0557 74.4902 46.2345 74.421 46.4006 74.3329C46.5666 74.2447 46.7262 74.1441 46.8795 74.0308C47.0327 73.9112 47.186 73.7853 47.3392 73.6532L47.5787 73.8797C47.4318 74.0748 47.2434 74.2888 47.0136 74.5217C46.7837 74.7545 46.5059 74.9748 46.1802 75.1824C45.8546 75.3838 45.4746 75.5537 45.0404 75.6922C44.6062 75.8244 44.1113 75.8904 43.5558 75.8904C43.0003 75.8904 42.4575 75.7929 41.9275 75.5978C41.4039 75.3964 40.9377 75.0975 40.529 74.701C40.1204 74.3045 39.7915 73.8105 39.5425 73.2189C39.2998 72.6274 39.1785 71.9351 39.1785 71.1422C39.1785 70.5695 39.2519 70.044 39.3988 69.5657C39.5457 69.0874 39.7436 68.6563 39.9927 68.2725C40.2481 67.8886 40.5418 67.5519 40.8739 67.2624C41.2123 66.9729 41.5667 66.7338 41.9371 66.545C42.3074 66.3499 42.6842 66.2051 43.0673 66.1107C43.4568 66.01 43.8304 65.9597 44.188 65.9597C44.6605 65.9597 45.0724 66.01 45.4236 66.1107C45.7748 66.2114 46.0653 66.3467 46.2952 66.5166C46.5315 66.6866 46.7071 66.8848 46.822 67.1113C46.9369 67.3316 46.9944 67.5645 46.9944 67.8099C46.9944 68.1057 46.9082 68.3731 46.7358 68.6123C46.5634 68.8451 46.3335 69.0497 46.0462 69.2259L42.2627 71.4254ZM44.188 69.5091C44.271 69.4587 44.338 69.4115 44.3891 69.3675C44.4466 69.3171 44.4913 69.2605 44.5232 69.1976C44.5551 69.1283 44.5775 69.0465 44.5903 68.9521C44.6094 68.8514 44.619 68.7287 44.619 68.584C44.619 68.4266 44.5998 68.2536 44.5615 68.0648C44.5296 67.8697 44.4721 67.6872 44.3891 67.5173C44.3061 67.3473 44.2007 67.2057 44.073 67.0925C43.9453 66.9792 43.7921 66.9225 43.6133 66.9225C43.3834 66.9225 43.1854 66.9918 43.0194 67.1302C42.8598 67.2624 42.7257 67.4354 42.6171 67.6494C42.5149 67.8634 42.4319 68.1088 42.3681 68.3857C42.3106 68.6563 42.2659 68.9301 42.234 69.207C42.2021 69.4839 42.1829 69.7514 42.1765 70.0094C42.1701 70.2611 42.1669 70.4751 42.1669 70.6513L44.188 69.5091Z" fill="black"/>
<path d="M54.5038 71.0572C54.5038 70.2643 54.4655 69.6318 54.3889 69.1598C54.3186 68.6815 54.2228 68.3197 54.1015 68.0742C53.9802 67.8225 53.8461 67.6589 53.6992 67.5833C53.5524 67.5015 53.4023 67.4606 53.249 67.4606C53.0639 67.4606 52.8978 67.511 52.751 67.6117C52.6105 67.7061 52.486 67.8162 52.3774 67.9421C52.2752 68.0679 52.1858 68.1938 52.1092 68.3197C52.039 68.4455 51.9783 68.5399 51.9272 68.6028V74.9087C51.9272 74.9905 51.9145 75.0912 51.8889 75.2108C51.8634 75.324 51.7995 75.4342 51.6974 75.5412C51.6016 75.6419 51.4547 75.7268 51.2568 75.796C51.0652 75.8716 50.8002 75.9093 50.4618 75.9093C50.1233 75.9093 49.8551 75.8684 49.6572 75.7866C49.4656 75.7111 49.3187 75.6198 49.2166 75.5128C49.1144 75.4059 49.0505 75.2957 49.025 75.1824C48.9995 75.0692 48.9867 74.9779 48.9867 74.9087V67.6211C48.9867 67.4386 48.942 67.2813 48.8526 67.1491C48.7696 67.0107 48.6259 66.9414 48.4216 66.9414C48.313 66.9414 48.2204 66.9603 48.1438 66.9981C48.0672 67.0358 47.9842 67.0893 47.8948 67.1585L47.6936 66.9225C47.8405 66.803 48.0033 66.6866 48.1821 66.5733C48.3673 66.4537 48.5652 66.3499 48.776 66.2618C48.9867 66.1737 49.2134 66.1013 49.456 66.0446C49.6987 65.988 49.9541 65.9597 50.2223 65.9597C50.6374 65.9597 50.9598 66.0289 51.1897 66.1674C51.4196 66.2995 51.5888 66.46 51.6974 66.6488C51.8059 66.8376 51.8698 67.0358 51.8889 67.2435C51.9145 67.4449 51.9272 67.6148 51.9272 67.7533C52.1635 67.4197 52.4317 67.1208 52.7318 66.8565C52.8531 66.7432 52.9872 66.6331 53.1341 66.5261C53.2873 66.4191 53.447 66.3247 53.613 66.2429C53.7854 66.1548 53.9642 66.0855 54.1494 66.0352C54.341 65.9849 54.5357 65.9597 54.7337 65.9597C55.1679 65.9597 55.551 66.0415 55.8831 66.2051C56.2215 66.3687 56.5057 66.6425 56.7355 67.0264C56.9654 67.4103 57.141 67.92 57.2623 68.5556C57.3837 69.185 57.4443 69.9685 57.4443 70.9062C57.4443 71.8187 57.3613 72.6117 57.1953 73.285C57.0293 73.9584 56.8122 74.5311 56.544 75.0031C56.2758 75.4751 55.9725 75.859 55.634 76.1548C55.2956 76.4568 54.954 76.6928 54.6092 76.8627C54.2643 77.0327 53.9323 77.1491 53.613 77.212C53.3001 77.2812 53.0287 77.319 52.7989 77.3253L52.6935 76.9383C52.8851 76.8942 53.0607 76.825 53.2203 76.7306C53.3863 76.6362 53.5364 76.4977 53.6705 76.3152C53.8046 76.1327 53.9227 75.903 54.0249 75.6261C54.127 75.3429 54.2133 74.9905 54.2835 74.5689C54.3601 74.1472 54.4144 73.65 54.4463 73.0774C54.4846 72.4984 54.5038 71.825 54.5038 71.0572Z" fill="black"/>
<path d="M74.4458 69.2636H70.6624V74.5217C70.6624 75.0062 70.5315 75.3587 70.2697 75.5789C70.0143 75.7992 69.6216 75.9093 69.0916 75.9093C68.5552 75.9093 68.1593 75.7992 67.9038 75.5789C67.6484 75.3587 67.5207 75.0062 67.5207 74.5217V69.2636H66.0265V68.4329H67.5207V62.4952C67.3164 62.5141 67.0801 62.5519 66.8119 62.6085C66.5501 62.6589 66.2787 62.7344 65.9978 62.8351C65.7232 62.9295 65.4518 63.0428 65.1836 63.1749C64.9154 63.3071 64.676 63.4613 64.4652 63.6375C64.2545 63.8137 64.0821 64.0119 63.948 64.2322C63.8203 64.4462 63.7564 64.679 63.7564 64.9307C63.7564 65.1321 63.782 65.2926 63.8331 65.4122C63.8905 65.5317 63.9544 65.623 64.0246 65.6859C64.0949 65.7426 64.1651 65.7803 64.2354 65.7992C64.312 65.8118 64.3663 65.8181 64.3982 65.8181C64.5578 65.8181 64.6887 65.7929 64.7909 65.7426C64.8931 65.6859 64.9857 65.6293 65.0687 65.5726C65.1517 65.5097 65.2283 65.4531 65.2985 65.4027C65.3752 65.3461 65.4614 65.3178 65.5572 65.3178C65.6338 65.3178 65.7136 65.3366 65.7966 65.3744C65.886 65.4059 65.9658 65.4594 66.0361 65.5349C66.1127 65.6104 66.1766 65.7111 66.2276 65.837C66.2787 65.9565 66.3043 66.1044 66.3043 66.2806C66.3043 66.5324 66.2532 66.7526 66.151 66.9414C66.0552 67.1239 65.9275 67.275 65.7679 67.3945C65.6146 67.5141 65.4358 67.6054 65.2315 67.6683C65.0335 67.7249 64.8356 67.7533 64.6376 67.7533C64.3311 67.7533 64.0534 67.7029 63.8043 67.6022C63.5617 67.4952 63.3541 67.3505 63.1817 67.168C63.0093 66.9855 62.8784 66.7747 62.789 66.5355C62.6996 66.2901 62.6549 66.0258 62.6549 65.7426C62.6549 65.0063 62.8593 64.3801 63.2679 63.864C63.683 63.348 64.2481 62.9263 64.9633 62.5991C65.6785 62.2655 66.5118 62.0233 67.4632 61.8722C68.4147 61.7212 69.4332 61.6457 70.5187 61.6457C70.9593 61.6457 71.4191 61.652 71.898 61.6645C72.3769 61.6708 72.8271 61.6834 73.2485 61.7023C73.6764 61.7212 74.0531 61.7432 74.3788 61.7684C74.7044 61.7935 74.9343 61.8219 75.0684 61.8533C75.1961 61.8848 75.2983 61.9194 75.3749 61.9572C75.4516 61.9949 75.509 62.039 75.5473 62.0893C75.5856 62.1397 75.6112 62.1995 75.624 62.2687C75.6367 62.3316 75.6431 62.4071 75.6431 62.4952C75.6431 62.5708 75.6335 62.6557 75.6144 62.7501C75.5952 62.8382 75.5665 62.9232 75.5282 63.005C75.4899 63.0805 75.442 63.1466 75.3845 63.2032C75.327 63.2599 75.2568 63.2882 75.1738 63.2882C75.1227 63.2882 75.0652 63.2662 75.0014 63.2221C74.9439 63.1781 74.8577 63.1214 74.7428 63.0522C74.6342 62.983 74.4841 62.9106 74.2926 62.8351C74.1074 62.7596 73.8552 62.6872 73.5359 62.618C73.223 62.5487 72.8303 62.4921 72.3578 62.448C71.8916 62.404 71.3265 62.382 70.6624 62.382V68.4329H74.4458V69.2636Z" fill="black"/>
<path d="M79.2254 74.9276C79.2254 75.0094 79.2094 75.1069 79.1775 75.2202C79.152 75.3335 79.0849 75.4405 78.9764 75.5412C78.8742 75.6419 78.7209 75.7268 78.5166 75.796C78.3187 75.8716 78.0505 75.9093 77.712 75.9093C77.3736 75.9093 77.1086 75.8684 76.917 75.7866C76.7255 75.7111 76.5818 75.6198 76.486 75.5128C76.3966 75.4059 76.3391 75.2957 76.3136 75.1824C76.2944 75.0692 76.2849 74.9779 76.2849 74.9087V62.7312C76.2849 62.5487 76.2402 62.3914 76.1508 62.2592C76.0678 62.1208 75.9241 62.0516 75.7197 62.0516C75.6112 62.0516 75.5154 62.0705 75.4324 62.1082C75.3558 62.1397 75.2728 62.19 75.1834 62.2592L74.9918 62.0327C75.1387 61.9131 75.3015 61.7967 75.4803 61.6834C75.6591 61.5638 75.8538 61.46 76.0646 61.3719C76.2817 61.2838 76.5116 61.2114 76.7542 61.1548C76.9968 61.0981 77.2523 61.0698 77.5205 61.0698C77.9355 61.0698 78.258 61.1265 78.4879 61.2397C78.7178 61.3467 78.887 61.482 78.9955 61.6457C79.1041 61.803 79.1679 61.9729 79.1871 62.1554C79.2126 62.3316 79.2254 62.489 79.2254 62.6274V74.9276Z" fill="black"/>
<path d="M81.0357 70.9251C81.0357 70.1006 81.157 69.3801 81.3997 68.7633C81.6423 68.1403 81.9648 67.6211 82.3671 67.2057C82.7758 66.7904 83.2483 66.4789 83.7847 66.2712C84.3211 66.0635 84.883 65.9597 85.4705 65.9597C86.0579 65.9597 86.6199 66.0572 87.1562 66.2523C87.6926 66.4411 88.162 66.7338 88.5642 67.1302C88.9729 67.5267 89.2986 68.0302 89.5412 68.6406C89.7839 69.2448 89.9052 69.9622 89.9052 70.7929C89.9052 71.6173 89.7839 72.3473 89.5412 72.983C89.2986 73.6186 88.9729 74.1535 88.5642 74.5877C88.162 75.022 87.6926 75.3524 87.1562 75.5789C86.6199 75.7992 86.0579 75.9093 85.4705 75.9093C84.883 75.9093 84.3211 75.8055 83.7847 75.5978C83.2483 75.3838 82.7758 75.0692 82.3671 74.6538C81.9648 74.2385 81.6423 73.7193 81.3997 73.0962C81.157 72.4732 81.0357 71.7495 81.0357 70.9251ZM86.9264 70.8307C86.9264 70.3272 86.9072 69.8426 86.8689 69.3769C86.837 68.9049 86.7699 68.4864 86.6677 68.1214C86.5656 67.7564 86.4187 67.4669 86.2271 67.2529C86.0356 67.0327 85.7833 66.9225 85.4705 66.9225C85.1576 66.9225 84.9053 67.039 84.7138 67.2718C84.5222 67.4984 84.3753 67.8005 84.2732 68.1781C84.171 68.5494 84.104 68.9741 84.072 69.4524C84.0401 69.9307 84.0241 70.4216 84.0241 70.9251C84.0241 71.4285 84.0401 71.9225 84.072 72.4071C84.104 72.8854 84.171 73.3133 84.2732 73.6909C84.3753 74.0685 84.5222 74.3738 84.7138 74.6066C84.9053 74.8332 85.1576 74.9464 85.4705 74.9464C85.7833 74.9464 86.0356 74.8269 86.2271 74.5877C86.4187 74.3486 86.5656 74.0339 86.6677 73.6437C86.7699 73.2536 86.837 72.813 86.8689 72.3222C86.9072 71.8313 86.9264 71.3341 86.9264 70.8307Z" fill="black"/>
<path d="M103.372 68.9521C103.372 68.5368 103.344 68.1938 103.286 67.9232C103.229 67.6526 103.165 67.4292 103.095 67.2529C103.031 67.0704 102.97 66.9225 102.913 66.8093C102.855 66.6897 102.826 66.5796 102.826 66.4789C102.826 66.3845 102.865 66.3058 102.941 66.2429C103.018 66.1799 103.107 66.1265 103.209 66.0824C103.318 66.0383 103.427 66.0069 103.535 65.988C103.65 65.9691 103.743 65.9597 103.813 65.9597C103.998 65.9597 104.132 65.9849 104.215 66.0352C104.298 66.0855 104.365 66.1831 104.416 66.3278C104.474 66.5103 104.512 66.7526 104.531 67.0547C104.557 67.3505 104.57 67.6683 104.57 68.0081C104.57 68.4927 104.541 69.0245 104.483 69.6035C104.426 70.1825 104.333 70.7646 104.206 71.3499C104.084 71.9351 103.925 72.5015 103.727 73.049C103.535 73.5965 103.302 74.0843 103.027 74.5122C102.753 74.9339 102.437 75.2737 102.079 75.5317C101.722 75.7834 101.316 75.9093 100.863 75.9093C100.505 75.9093 100.183 75.8401 99.8954 75.7016C99.6144 75.5569 99.3622 75.3618 99.1387 75.1164C98.9152 74.8709 98.7173 74.5846 98.5448 74.2573C98.3788 73.9238 98.2319 73.5682 98.1042 73.1906C97.9574 73.5745 97.7882 73.9332 97.5966 74.2668C97.405 74.594 97.1911 74.8804 96.9548 75.1258C96.725 75.3712 96.4695 75.5632 96.1886 75.7016C95.9076 75.8401 95.6043 75.9093 95.2786 75.9093C94.8764 75.9093 94.5188 75.8244 94.2059 75.6544C93.8994 75.4782 93.628 75.2422 93.3917 74.9464C93.1554 74.6444 92.9511 74.2951 92.7787 73.8986C92.6063 73.5021 92.4562 73.0836 92.3285 72.6431C92.2072 72.2026 92.105 71.7495 92.022 71.2838C91.939 70.8181 91.8688 70.3681 91.8113 69.9339C91.7538 69.4996 91.7059 69.0937 91.6676 68.7161C91.6293 68.3385 91.591 68.0113 91.5527 67.7344C91.508 67.4826 91.4409 67.2876 91.3515 67.1491C91.2685 67.0107 91.1248 66.9414 90.9205 66.9414C90.812 66.9414 90.7194 66.9603 90.6427 66.9981C90.5661 67.0358 90.4831 67.0893 90.3937 67.1585L90.1926 66.9225C90.3394 66.803 90.5023 66.6866 90.6811 66.5733C90.8662 66.4537 91.0642 66.3499 91.2749 66.2618C91.4856 66.1737 91.7123 66.1013 91.955 66.0446C92.1976 65.988 92.453 65.9597 92.7212 65.9597C93.1044 65.9597 93.4141 66.0258 93.6503 66.1579C93.8866 66.2838 94.0718 66.4443 94.2059 66.6394C94.3464 66.8282 94.4453 67.0327 94.5028 67.2529C94.5603 67.4732 94.6018 67.6714 94.6273 67.8477C94.7423 68.7979 94.854 69.6349 94.9626 70.3587C95.0775 71.0824 95.1988 71.6897 95.3265 72.1806C95.4542 72.6651 95.5915 73.0333 95.7384 73.285C95.8917 73.5305 96.0704 73.6532 96.2748 73.6532C96.4089 73.6532 96.5398 73.5965 96.6675 73.4833C96.7952 73.37 96.9165 73.2127 97.0315 73.0113C97.1464 72.8099 97.255 72.5676 97.3571 72.2844C97.4593 71.9949 97.5487 71.6771 97.6253 71.331C97.5615 70.9848 97.5072 70.6419 97.4625 70.302C97.4178 69.9622 97.3763 69.6381 97.338 69.3297C97.3061 69.0151 97.2741 68.7224 97.2422 68.4518C97.2103 68.1812 97.1751 67.9421 97.1368 67.7344C97.041 67.1428 97.0953 66.6991 97.2997 66.4034C97.5104 66.1076 97.9286 65.9597 98.5544 65.9597C98.829 65.9597 99.0589 65.9849 99.2441 66.0352C99.4356 66.0793 99.5921 66.1674 99.7134 66.2995C99.8411 66.4254 99.9433 66.6016 100.02 66.8282C100.097 67.0484 100.157 67.3316 100.202 67.6777C100.323 68.6217 100.441 69.465 100.556 70.2076C100.671 70.9502 100.793 71.5764 100.92 72.0862C101.048 72.5959 101.185 72.9861 101.332 73.2567C101.485 73.521 101.664 73.6532 101.869 73.6532C102.086 73.6532 102.287 73.521 102.472 73.2567C102.657 72.9924 102.817 72.6431 102.951 72.2089C103.085 71.7746 103.187 71.2743 103.257 70.7079C103.334 70.1415 103.372 69.5563 103.372 68.9521Z" fill="black"/>
<path d="M108.909 71.4254C108.909 71.6268 108.937 71.847 108.995 72.0862C109.059 72.319 109.148 72.555 109.263 72.7942C109.378 73.0333 109.518 73.263 109.684 73.4833C109.857 73.6972 110.052 73.8892 110.269 74.0591C110.492 74.229 110.738 74.3643 111.006 74.465C111.274 74.5657 111.568 74.6161 111.887 74.6161C112.111 74.6161 112.318 74.5909 112.51 74.5405C112.702 74.4902 112.88 74.421 113.046 74.3329C113.212 74.2447 113.372 74.1441 113.525 74.0308C113.679 73.9112 113.832 73.7853 113.985 73.6532L114.225 73.8797C114.078 74.0748 113.889 74.2888 113.659 74.5217C113.43 74.7545 113.152 74.9748 112.826 75.1824C112.5 75.3838 112.12 75.5537 111.686 75.6922C111.252 75.8244 110.757 75.8904 110.202 75.8904C109.646 75.8904 109.103 75.7929 108.573 75.5978C108.05 75.3964 107.584 75.0975 107.175 74.701C106.766 74.3045 106.437 73.8105 106.188 73.2189C105.946 72.6274 105.824 71.9351 105.824 71.1422C105.824 70.5695 105.898 70.044 106.045 69.5657C106.192 69.0874 106.389 68.6563 106.639 68.2725C106.894 67.8886 107.188 67.5519 107.52 67.2624C107.858 66.9729 108.213 66.7338 108.583 66.545C108.953 66.3499 109.33 66.2051 109.713 66.1107C110.103 66.01 110.476 65.9597 110.834 65.9597C111.306 65.9597 111.718 66.01 112.069 66.1107C112.421 66.2114 112.711 66.3467 112.941 66.5166C113.177 66.6866 113.353 66.8848 113.468 67.1113C113.583 67.3316 113.64 67.5645 113.64 67.8099C113.64 68.1057 113.554 68.3731 113.382 68.6123C113.209 68.8451 112.979 69.0497 112.692 69.2259L108.909 71.4254ZM110.834 69.5091C110.917 69.4587 110.984 69.4115 111.035 69.3675C111.092 69.3171 111.137 69.2605 111.169 69.1976C111.201 69.1283 111.223 69.0465 111.236 68.9521C111.255 68.8514 111.265 68.7287 111.265 68.584C111.265 68.4266 111.246 68.2536 111.207 68.0648C111.175 67.8697 111.118 67.6872 111.035 67.5173C110.952 67.3473 110.847 67.2057 110.719 67.0925C110.591 66.9792 110.438 66.9225 110.259 66.9225C110.029 66.9225 109.831 66.9918 109.665 67.1302C109.506 67.2624 109.372 67.4354 109.263 67.6494C109.161 67.8634 109.078 68.1088 109.014 68.3857C108.956 68.6563 108.912 68.9301 108.88 69.207C108.848 69.4839 108.829 69.7514 108.822 70.0094C108.816 70.2611 108.813 70.4751 108.813 70.6513L110.834 69.5091Z" fill="black"/>
<path d="M118.573 67.9515C118.816 67.5865 119.074 67.2561 119.349 66.9603C119.464 66.8344 119.588 66.7117 119.722 66.5922C119.857 66.4726 119.994 66.3656 120.134 66.2712C120.281 66.1768 120.431 66.1013 120.585 66.0446C120.738 65.988 120.891 65.9597 121.044 65.9597C121.37 65.9597 121.625 66.0572 121.811 66.2523C121.996 66.4411 122.088 66.7086 122.088 67.0547C122.088 67.2687 122.069 67.4764 122.031 67.6777C121.999 67.8728 121.932 68.112 121.83 68.3952H121.562C121.523 68.2001 121.434 68.0396 121.293 67.9137C121.153 67.7816 120.949 67.7155 120.68 67.7155C120.482 67.7155 120.288 67.7533 120.096 67.8288C119.904 67.898 119.716 67.9861 119.531 68.0931C119.352 68.2001 119.18 68.3165 119.014 68.4424C118.854 68.5682 118.707 68.6878 118.573 68.8011V74.9276C118.573 75.0094 118.56 75.1069 118.535 75.2202C118.509 75.3335 118.445 75.4405 118.343 75.5412C118.247 75.6419 118.101 75.7268 117.903 75.796C117.711 75.8716 117.446 75.9093 117.108 75.9093C116.769 75.9093 116.501 75.8684 116.303 75.7866C116.111 75.7111 115.965 75.6198 115.862 75.5128C115.76 75.4059 115.696 75.2957 115.671 75.1824C115.645 75.0692 115.633 74.9779 115.633 74.9087V67.6211C115.633 67.4386 115.588 67.2813 115.498 67.1491C115.415 67.0107 115.272 66.9414 115.067 66.9414C114.959 66.9414 114.866 66.9603 114.79 66.9981C114.713 67.0358 114.63 67.0893 114.541 67.1585L114.339 66.9225C114.486 66.803 114.649 66.6866 114.828 66.5733C115.013 66.4537 115.211 66.3499 115.422 66.2618C115.633 66.1737 115.859 66.1013 116.102 66.0446C116.345 65.988 116.6 65.9597 116.868 65.9597C117.143 65.9597 117.376 65.9974 117.567 66.073C117.765 66.1422 117.925 66.2366 118.046 66.3562C118.174 66.4694 118.273 66.5984 118.343 66.7432C118.413 66.8879 118.465 67.0358 118.496 67.1869C118.535 67.3316 118.557 67.4732 118.563 67.6117C118.57 67.7438 118.573 67.8571 118.573 67.9515Z" fill="black"/>
<path d="M126.389 66.7149C126.242 66.7149 126.102 66.7338 125.968 66.7715C125.84 66.8093 125.725 66.8722 125.623 66.9603C125.521 67.0421 125.441 67.1491 125.383 67.2813C125.326 67.4071 125.297 67.5582 125.297 67.7344C125.297 67.9798 125.386 68.2253 125.565 68.4707C125.75 68.7098 125.977 68.9616 126.245 69.2259C126.52 69.4839 126.814 69.7545 127.127 70.0377C127.446 70.3146 127.74 70.6104 128.008 70.9251C128.282 71.2334 128.509 71.5638 128.688 71.9162C128.873 72.2687 128.966 72.6463 128.966 73.049C128.966 73.5021 128.886 73.9049 128.726 74.2573C128.573 74.6098 128.349 74.9087 128.056 75.1541C127.768 75.3996 127.417 75.5884 127.002 75.7205C126.593 75.8464 126.137 75.9093 125.632 75.9093C125.192 75.9093 124.793 75.8495 124.435 75.73C124.077 75.6041 123.758 75.4531 123.477 75.2768C123.203 75.0943 122.966 74.9024 122.768 74.701C122.57 74.4996 122.417 74.3171 122.309 74.1535L122.644 73.9175C122.727 74.0119 122.832 74.1157 122.96 74.229C123.088 74.336 123.228 74.4367 123.381 74.5311C123.541 74.6255 123.71 74.7042 123.889 74.7671C124.068 74.8237 124.25 74.852 124.435 74.852C124.895 74.852 125.272 74.7451 125.565 74.5311C125.859 74.3108 126.006 73.9867 126.006 73.5588C126.006 73.3196 125.926 73.0742 125.766 72.8225C125.607 72.5645 125.406 72.3001 125.163 72.0295C124.92 71.7589 124.658 71.4789 124.378 71.1894C124.097 70.8999 123.835 70.601 123.592 70.2926C123.349 69.9842 123.148 69.6664 122.989 69.3392C122.829 69.0119 122.749 68.6721 122.749 68.3197C122.749 67.9232 122.829 67.577 122.989 67.2813C123.155 66.9855 123.372 66.74 123.64 66.545C123.915 66.3499 124.224 66.2051 124.569 66.1107C124.92 66.01 125.281 65.9597 125.651 65.9597C126.079 65.9597 126.469 65.9974 126.82 66.073C127.171 66.1485 127.471 66.2649 127.72 66.4222C127.976 66.5733 128.171 66.7652 128.305 66.9981C128.445 67.2309 128.515 67.5015 128.515 67.8099C128.515 68.049 128.436 68.2567 128.276 68.4329C128.116 68.6091 127.893 68.6972 127.605 68.6972C127.331 68.6972 127.12 68.6406 126.973 68.5273C126.833 68.4078 126.763 68.2473 126.763 68.0459C126.763 67.9137 126.794 67.8099 126.858 67.7344C126.929 67.6589 127.005 67.5991 127.088 67.555C127.171 67.5047 127.245 67.4638 127.308 67.4323C127.379 67.3945 127.414 67.3473 127.414 67.2907C127.414 67.1145 127.318 66.976 127.127 66.8753C126.935 66.7684 126.689 66.7149 126.389 66.7149Z" fill="black"/>
<path fill-rule="evenodd" clip-rule="evenodd" d="M59.9288 18.6852C59.1303 18.8179 57.1935 16.4292 57.1698 13.7127C57.1441 10.5231 61.349 5.90144 63.2249 3.83971C63.6583 3.36338 63.9673 3.02369 64.0712 2.86987C64.7036 1.94093 64.7432 0.746582 64.7432 0.746582C64.7432 0.746582 64.6957 1.94093 65.3282 2.86987C65.432 3.02369 65.7411 3.36338 66.1744 3.83971C68.0503 5.90144 72.2552 10.5231 72.2296 13.7127C72.2058 16.4214 70.269 18.8179 69.4706 18.6852C69.2967 18.4979 65.8183 12.37 64.6957 8.74012C64.6957 8.74012 60.1106 18.4979 59.9288 18.6852ZM78.4965 11.8343C79.5395 11.015 80.3645 10.3668 80.8941 9.70032C80.7843 10.6079 80.8266 13.3519 80.8573 15.3414C80.8686 16.0726 80.8783 16.7019 80.8783 17.1006C80.8783 17.4599 80.8513 17.8237 80.8245 18.1853C80.8157 18.3028 80.807 18.4201 80.7993 18.5369C80.7597 19.1848 80.3487 19.5908 79.8506 19.942C79.707 20.0433 79.5633 20.1444 79.4194 20.2455C78.6763 20.7678 77.9322 21.2908 77.2102 21.8468C76.6199 22.2995 76.0508 22.78 75.4816 23.2605C75.197 23.5008 74.9124 23.7411 74.6251 23.9778C74.4196 24.1496 74.1983 24.3213 73.969 24.4618C73.5026 24.7429 72.9808 24.618 72.6962 24.1262C72.127 23.1426 71.5737 22.1434 71.044 21.1286C70.9412 20.9334 70.9254 20.6212 71.0045 20.4182C71.2733 19.7469 71.5974 19.099 71.9373 18.4589C72.1982 17.9671 72.4986 17.4909 72.8306 17.0459C75.0191 14.5663 76.9862 13.0209 78.4965 11.8343ZM64.7038 43.4141C64.1741 43.4063 63.4863 43.3594 62.9488 43.2736C61.1859 42.9925 59.668 42.1885 58.4664 40.8693C57.502 39.8076 56.7747 38.5898 56.245 37.2628C55.5572 35.5454 55.2647 33.7578 55.5335 31.9234C55.6995 30.8227 55.9525 29.7298 56.2529 28.6604C56.8063 26.6932 57.5257 24.7729 58.585 23.0165C59.4309 21.6114 64.6642 11.9005 64.6959 11.8302C64.7275 11.9005 69.9609 21.6114 70.8067 23.0165C71.874 24.7729 72.5854 26.6932 73.1388 28.6604C73.4392 29.7298 73.7001 30.8227 73.8582 31.9234C74.127 33.7578 73.8345 35.5454 73.1467 37.2628C72.6171 38.5898 71.8977 39.8076 70.9253 40.8693C69.7237 42.1885 68.2059 42.9925 66.443 43.2736C65.9133 43.3594 65.2334 43.4063 64.7038 43.4141ZM76.5697 41.7208C77.8661 41.2837 79.0361 40.5889 80.1192 39.7458C82.1509 38.169 83.6529 36.194 84.4988 33.7819C84.9303 32.5585 85.2608 31.2971 85.5916 30.0347C85.6851 29.6781 85.7785 29.3214 85.8743 28.9655C86.3249 27.295 86.483 25.5776 86.5779 23.8524C86.6253 23.0406 86.7676 22.2288 86.9494 21.4325C87.1155 20.6987 88.9574 18.0134 88.9574 18.0134C88.9574 18.0134 86.151 18.193 82.8782 19.8244C81.8584 20.4333 80.8544 21.0734 79.8741 21.7448C78.8622 22.4395 75.5578 25.039 74.9491 25.6713C74.8707 25.7526 74.7987 25.8255 74.7329 25.8922C74.1417 26.4914 74.0542 26.58 74.3957 27.5916C74.7909 28.7625 75.1467 29.9569 75.3759 31.159C75.7712 33.2823 75.7317 35.4212 75.2099 37.5133C74.5792 39.6779 73.5932 41.0532 72.9964 41.8856L72.9963 41.8858L72.9961 41.886C72.8376 42.1071 72.7066 42.2899 72.617 42.439C72.5537 42.5561 75.6368 42.0409 76.5697 41.7208ZM77.0009 43.8528C77.2855 43.7518 77.5702 43.6507 77.8582 43.5637C77.8801 43.5568 77.9086 43.5471 77.9436 43.5351C78.4656 43.3573 80.4343 42.6864 83.4789 43.5715C89.9772 46.0538 92.9022 50.5112 92.9022 50.5112C92.9022 50.5112 88.8862 50.3472 87.7399 50.558C87.3235 50.6332 86.9146 50.7384 86.5047 50.8439L86.5047 50.8439L86.5044 50.844C86.1909 50.9247 85.8767 51.0056 85.5581 51.0732L85.4998 51.0854L85.4358 51.0989C85.3652 51.1138 85.2945 51.129 85.2238 51.1443C84.6926 51.2586 84.1569 51.3739 83.6212 51.3933C82.6805 51.4245 81.7318 51.4011 80.7911 51.3152C79.9373 51.2371 79.0677 51.1122 78.2456 50.8703C77.3602 50.6127 76.5064 50.2301 75.6605 49.8398C75.0834 49.5744 72.8857 47.5917 72.3798 46.9047L72.2798 46.7692L72.2798 46.7691C71.9972 46.3862 71.7173 46.0069 71.4627 45.6089C71.186 45.1717 71.2967 44.9532 71.8106 44.8751C72.1801 44.8197 72.5497 44.7683 72.9188 44.7171C73.7973 44.595 74.6735 44.4733 75.5419 44.2974C76.0386 44.1944 76.5197 44.0237 77.0009 43.8528ZM88.6649 24.9454C91.0919 23.1031 93.8272 21.9478 96.847 21.4951C98.0091 21.3155 100.752 21.2218 100.847 21.2921L100.824 21.3015C100.419 21.4638 98.4965 22.2357 96.0881 25.1874C95.4266 26.0331 94.9798 26.9939 94.5315 27.9577C94.4709 28.0881 94.4102 28.2186 94.3489 28.3489C93.9466 29.197 93.6081 29.9852 93.2877 30.7311L93.2872 30.7324L93.2867 30.7335L93.2866 30.7339C92.254 33.1382 91.4098 35.1041 89.2262 37.2245C88.2934 38.1222 82.2774 40.6358 82.2774 40.6358C82.2774 40.6358 85.0996 36.2097 85.2498 35.593L88.6649 24.9454ZM84.4848 41.4147L84.4841 41.4151C84.0147 41.6713 83.5435 41.9286 83.0678 42.1888L83.0775 42.1912L83.0991 42.1963L83.1782 42.2138L83.1782 42.2138C83.8508 42.3621 87.3186 43.1267 88.9573 44.3511C89.0917 44.4526 89.3605 44.4838 89.5265 44.4214L90.4752 43.9218C90.7529 43.7938 91.0388 43.6845 91.3249 43.5752L91.325 43.5752C91.5274 43.4978 91.7299 43.4204 91.9298 43.3363L92.1086 43.2594L92.1087 43.2593C92.9748 42.8867 93.8461 42.5119 94.6966 42.1029C95.1393 41.8922 95.5504 41.6034 95.9536 41.3145C96.1908 41.1428 96.1591 40.9008 95.8983 40.7447C95.7639 40.6666 95.6137 40.612 95.4556 40.5807C95.3035 40.5527 95.1515 40.5236 94.9994 40.4945C94.4317 40.3859 93.8631 40.2771 93.2895 40.2217C91.6847 40.0577 90.0799 39.9016 88.4672 39.8079C88.1139 39.7882 87.7438 39.8961 87.3853 40.0006C87.3186 40.02 87.2523 40.0394 87.1865 40.0577C86.9829 40.1159 86.7903 40.2028 86.5986 40.2892C86.5075 40.3303 86.4166 40.3713 86.3248 40.409C85.7265 40.7368 85.1306 41.0621 84.5317 41.3891L84.515 41.3982L84.4957 41.4087L84.4848 41.4147ZM56.4031 41.894L56.4032 41.8941C56.5618 42.1154 56.6929 42.2982 56.7825 42.4474C56.8458 42.5567 53.7627 42.0415 52.8298 41.7292C51.5334 41.2921 50.3634 40.5973 49.2803 39.7543C47.2486 38.1696 45.7466 36.1946 44.9007 33.7903C44.4676 32.556 44.1361 31.293 43.804 30.0275C43.7119 29.6763 43.6196 29.3249 43.5252 28.9739C43.0825 27.3034 42.9244 25.586 42.8216 23.8609C42.7742 23.049 42.624 22.2372 42.4501 21.4409C42.2919 20.715 40.4421 18.0218 40.4421 18.0218C40.4421 18.0218 43.2485 18.2014 46.5213 19.8329C47.5411 20.4418 48.5451 21.0819 49.5254 21.7532C50.5294 22.4479 53.8417 25.0474 54.4505 25.6797C54.5316 25.7639 54.6059 25.8391 54.6736 25.9075C55.2585 26.4991 55.3439 26.5855 55.0038 27.6C54.6086 28.7632 54.2528 29.9575 54.0236 31.1675C53.6283 33.2829 53.6678 35.4218 54.1896 37.5217C54.8203 39.6863 55.8064 41.0616 56.4031 41.894ZM45.9203 43.5633C39.4221 46.0535 36.4971 50.503 36.4971 50.503C36.4971 50.503 40.513 50.3391 41.6593 50.5498C42.0818 50.6261 42.499 50.7333 42.9155 50.8403L42.9156 50.8403L42.9156 50.8403L42.9157 50.8403L42.9158 50.8404L42.916 50.8404L42.9161 50.8404C43.2243 50.9196 43.532 50.9987 43.8412 51.065C43.9522 51.0881 44.0635 51.112 44.175 51.136L44.1751 51.136L44.1753 51.1361L44.1754 51.1361L44.1754 51.1361C44.7067 51.2504 45.2423 51.3657 45.778 51.3851C46.7187 51.4241 47.6674 51.4007 48.6081 51.307C49.4619 51.229 50.3315 51.1041 51.1537 50.8621C52.0391 50.6045 52.9008 50.2142 53.7387 49.8317C54.3158 49.5663 56.5135 47.5835 57.0195 46.8965C57.3357 46.475 57.6519 46.0457 57.9365 45.6007C58.2132 45.1636 58.0946 44.945 57.5887 44.8669C57.2124 44.8101 56.8347 44.7577 56.4567 44.7051L56.4565 44.7051L56.4563 44.7051L56.4561 44.705L56.4559 44.705L56.4557 44.705L56.4556 44.705L56.4555 44.705L56.4554 44.7049L56.4553 44.7049L56.4552 44.7049C55.5867 44.5842 54.7162 44.4633 53.8573 44.2893C53.3607 44.1863 52.8797 44.0155 52.3986 43.8447L52.3985 43.8447L52.3985 43.8447L52.3984 43.8447L52.3984 43.8447L52.3984 43.8447C52.1137 43.7436 51.829 43.6425 51.541 43.5555C51.5151 43.5479 51.4799 43.5364 51.4356 43.5218C50.8849 43.3405 48.9274 42.6963 45.9203 43.5633ZM32.5524 21.4951C35.5723 21.9478 38.3076 23.1031 40.7345 24.9454L44.1497 35.593C44.2999 36.2097 47.1221 40.6358 47.1221 40.6358C47.1221 40.6358 41.1061 38.1222 40.1732 37.2245C37.9897 35.1041 37.1454 33.1382 36.1129 30.7339C35.7922 29.9871 35.4533 29.198 35.0505 28.3489C34.9893 28.2186 34.9286 28.0881 34.8679 27.9576C34.4197 26.9938 33.9728 26.0331 33.3114 25.1874C30.903 22.2357 28.9801 21.4638 28.5756 21.3015L28.5523 21.2921C28.6472 21.2218 31.3903 21.3155 32.5524 21.4951ZM48.5292 17.1006C48.5292 17.46 48.5562 17.8238 48.583 18.1853C48.5918 18.3028 48.6005 18.4201 48.6082 18.5369C48.6557 19.1848 49.0668 19.5908 49.5569 19.942C49.8064 20.1202 50.0572 20.2966 50.3078 20.4728L50.3079 20.4728L50.3079 20.4729L50.3079 20.4729C50.9466 20.9219 51.5842 21.3703 52.1973 21.8468C52.7876 22.3047 53.3568 22.7835 53.9259 23.2623L53.9262 23.2625C54.2107 23.5018 54.4952 23.7411 54.7824 23.9778C54.9879 24.1496 55.2093 24.3213 55.4385 24.4618C55.9049 24.7429 56.4267 24.618 56.7113 24.1262C57.2805 23.1348 57.8338 22.1356 58.3635 21.1286C58.4663 20.9334 58.4821 20.6212 58.403 20.4182C58.1263 19.7469 57.8101 19.099 57.4702 18.4589C57.2093 17.9671 56.9168 17.4909 56.5769 17.0459C54.3862 14.5691 52.4218 13.0243 50.9137 11.8383C49.8694 11.017 49.0438 10.3678 48.5134 9.70032C48.6132 10.571 48.5769 13.132 48.549 15.0953C48.5371 15.9307 48.5268 16.6579 48.5292 17.1006ZM44.9153 41.4151C44.3004 41.0794 43.6887 40.7455 43.0745 40.409C42.9828 40.3713 42.892 40.3303 42.8009 40.2892L42.8008 40.2892L42.8008 40.2892L42.8007 40.2892L42.8006 40.2891C42.609 40.2028 42.4164 40.1159 42.2129 40.0577C42.1471 40.0394 42.0808 40.02 42.0141 40.0006C41.6556 39.8961 41.2854 39.7882 40.9322 39.8079C39.3195 39.9016 37.7147 40.0577 36.1099 40.2217C35.5363 40.2771 34.9676 40.3859 34.4 40.4945C34.2479 40.5236 34.0958 40.5527 33.9438 40.5807C33.7857 40.612 33.6355 40.6666 33.5011 40.7447C33.2402 40.9008 33.2086 41.1428 33.4458 41.3145C33.849 41.6034 34.26 41.8922 34.7027 42.1029C35.5532 42.5119 36.4245 42.8867 37.2906 43.2593L37.4696 43.3363C37.6694 43.4204 37.872 43.4978 38.0744 43.5752L38.0745 43.5752C38.3606 43.6845 38.6465 43.7938 38.9242 43.9218L39.8729 44.4214C40.0389 44.4838 40.3077 44.4526 40.4421 44.3511C42.0808 43.1267 45.5488 42.3621 46.2212 42.2138L46.2215 42.2137C46.282 42.2004 46.3198 42.192 46.3316 42.1888C45.8564 41.9289 45.3857 41.6719 44.9169 41.416L44.9153 41.4151ZM62.6086 44.8593C63.2568 44.9764 64.0553 45.0232 64.7035 45.0232C65.3518 45.0232 66.1423 44.9764 66.8143 44.8593C66.9882 44.828 67.1858 44.8202 67.3518 44.8671C69.1701 45.3901 70.5061 46.5064 71.265 48.2159C72.4429 50.8622 71.6049 53.2978 69.5258 55.0463C69.178 55.3352 67.8815 56.0611 67.6048 56.1548C66.7905 56.4358 66.1265 56.9354 65.581 57.5834C65.4059 57.7921 65.0001 59.0121 64.8112 59.58C64.7528 59.7555 64.7151 59.8687 64.7114 59.8706C64.7077 59.8687 64.6706 59.7568 64.613 59.5831C64.4247 59.0151 64.0174 57.7866 63.8418 57.5834C63.2963 56.9432 62.6323 56.4358 61.818 56.1548C61.5334 56.0533 60.2449 55.3352 59.897 55.0463C57.81 53.2978 56.9799 50.8622 58.1578 48.2159C58.9168 46.5064 60.2528 45.3979 62.071 44.8671C62.237 44.8202 62.4347 44.828 62.6086 44.8593Z" fill="white"/>
</mask>
<g mask="url(#mask0_501_8220)">
<rect width="167.919" height="103.594" transform="matrix(0.991601 -0.129336 0.132371 0.9912 -27.6351 4.27783)" fill="url(#paint0_linear_501_8220)"/>
<rect width="167.919" height="103.594" transform="matrix(0.991601 -0.129336 0.132371 0.9912 -27.6351 4.27783)" fill="url(#paint1_linear_501_8220)" style="mix-blend-mode:overlay"/>
<rect width="167.919" height="103.594" transform="matrix(0.991601 -0.129336 0.132371 0.9912 -27.6351 4.27783)" fill="#C1A875" style="mix-blend-mode:color"/>
</g>
<defs>
<linearGradient id="paint0_linear_501_8220" x1="9.31001" y1="64.7919" x2="153.692" y2="9.96879" gradientUnits="userSpaceOnUse">
<stop stop-color="#576265"/>
<stop offset="0.172016" stop-color="#9EA1A1"/>
<stop offset="0.45741" stop-color="#C7CACA"/>
<stop offset="0.553567" stop-color="#7B8487"/>
<stop offset="0.776065" stop-color="#C0C0C0"/>
<stop offset="0.925155" stop-color="#757A7B"/>
<stop offset="1" stop-color="#B6BABB"/>
</linearGradient>
<linearGradient id="paint1_linear_501_8220" x1="67.032" y1="51.7972" x2="53.1867" y2="-6.77093" gradientUnits="userSpaceOnUse">
<stop stop-color="white" stop-opacity="0"/>
<stop offset="1" stop-color="white"/>
</linearGradient>
</defs>
</svg>
