<svg width="175" height="35" viewBox="0 0 175 35" fill="none" xmlns="http://www.w3.org/2000/svg">
<mask id="mask0_566_635" style="mask-type:alpha" maskUnits="userSpaceOnUse" x="19" y="0" width="141" height="36">
<path d="M92.5322 24.25C93.2892 23.9925 93.9747 23.5776 94.6031 23.0768C95.7885 22.1468 96.6597 20.9736 97.1596 19.5429C97.4881 18.6129 97.7166 17.6543 97.9594 16.6957C98.2165 15.7085 98.3164 14.6927 98.3736 13.6626C98.4021 13.1761 98.4878 12.704 98.5878 12.2318C98.6878 11.8026 99.7589 10.2002 99.7589 10.2002C99.7589 10.2002 98.1165 10.3003 96.217 11.2732C95.6171 11.6309 95.0316 12.0172 94.4603 12.4035C93.8747 12.8184 91.9467 14.3493 91.5896 14.7213C91.1326 15.2078 91.0469 15.1935 91.2611 15.8516C91.4897 16.5384 91.7039 17.2537 91.8324 17.9691C92.0609 19.2281 92.0324 20.4872 91.7324 21.7319C91.2611 23.3487 90.4756 24.2214 90.2186 24.6506C90.1757 24.7365 91.9752 24.436 92.5322 24.25Z" fill="#FFD57F"/>
<path d="M93.2751 25.3374C92.8181 25.4805 92.3896 25.6808 91.9183 25.7666C91.2042 25.9097 90.4616 25.9955 89.7475 26.11C89.4475 26.1529 89.3761 26.2817 89.5475 26.5392C89.7189 26.7967 89.9046 27.0543 90.076 27.3118C90.3759 27.7124 91.647 28.8856 91.9897 29.043C92.4753 29.2719 92.9752 29.5008 93.5036 29.6582C93.9892 29.8013 94.4891 29.8728 94.989 29.9157C95.5317 29.973 96.0887 29.9873 96.6457 29.9587C97.0313 29.9443 97.4026 29.8442 97.7739 29.7727C98.2024 29.6868 98.6166 29.5437 99.045 29.4722C99.7163 29.3434 102.059 29.4436 102.059 29.4436C102.059 29.4436 100.345 26.811 96.56 25.3374C94.6605 24.7794 93.4893 25.2802 93.2751 25.3374Z" fill="#FFD57F"/>
<path d="M99.5878 14.3213C101.002 13.234 102.601 12.5472 104.358 12.2754C105.044 12.1752 106.643 12.118 106.7 12.1609C106.5 12.2467 105.358 12.6903 103.93 14.4644C103.487 15.0367 103.215 15.6948 102.916 16.3387C101.93 18.4561 101.602 19.9441 99.9306 21.5895C99.3879 22.1188 95.8745 23.6068 95.8745 23.6068C95.8745 23.6068 97.5169 20.9885 97.6026 20.6166" fill="#FFD57F"/>
<path d="M95.0462 5.29395C94.2893 6.26685 92.504 7.16821 90.3474 9.64338C90.1475 9.90092 89.9761 10.1871 89.8333 10.4732C89.6333 10.8452 89.4477 11.2315 89.2906 11.6321C89.2477 11.7466 89.2477 11.9326 89.3191 12.047C89.619 12.6479 89.9475 13.2345 90.276 13.8211C90.4474 14.1073 90.7473 14.1788 91.0187 14.0214C91.1472 13.9356 91.2758 13.8354 91.4043 13.7353C91.9042 13.3204 92.3898 12.8768 92.9039 12.4762C93.4038 12.0899 93.9322 11.7179 94.4464 11.346C94.732 11.1313 94.9748 10.9024 95.0034 10.5161C95.0176 10.23 95.0462 9.94384 95.0462 9.672C95.0462 8.79925 94.9605 6.03793 95.0462 5.29395Z" fill="#FFD57F"/>
<path d="M98.2166 23.4785C97.5882 23.8219 96.9598 24.1796 96.3171 24.5373C96.4028 24.5659 98.7165 25.0237 99.7591 25.8106C99.8448 25.8679 100.002 25.8822 100.088 25.8536L100.645 25.5531C100.916 25.4244 101.216 25.3242 101.487 25.2097C102.03 24.9665 102.573 24.7376 103.101 24.4801C103.358 24.3513 103.601 24.1796 103.829 24.0222C103.972 23.9221 103.944 23.779 103.801 23.6932C103.729 23.6502 103.629 23.6073 103.544 23.593C103.13 23.5215 102.701 23.4213 102.273 23.3784C101.33 23.2782 100.402 23.1924 99.4591 23.1352C99.2164 23.1209 98.9593 23.221 98.7165 23.2782C98.5451 23.3212 98.388 23.407 98.2166 23.4785Z" fill="#FFD57F"/>
<path d="M80.9925 24.6789C80.7497 24.264 79.9499 23.3913 79.4786 21.7602C79.1787 20.5155 79.1501 19.2565 79.3786 17.9974C79.5072 17.282 79.7214 16.581 79.9499 15.8799C80.1642 15.2075 80.0785 15.2218 79.6214 14.7496C79.2644 14.3777 77.3363 12.8325 76.7508 12.4318C76.1795 12.0312 75.5939 11.6593 74.9941 11.3016C73.0803 10.3287 71.4521 10.2285 71.4521 10.2285C71.4521 10.2285 72.5376 11.8166 72.6233 12.2602C72.7232 12.7323 72.8089 13.2044 72.8375 13.6909C72.8946 14.7067 72.9946 15.7225 73.2517 16.7241C73.5088 17.6826 73.7373 18.6412 74.0515 19.5712C74.5513 20.9876 75.4225 22.1609 76.6079 23.1051C77.2364 23.6059 77.9219 24.0208 78.6788 24.2783C79.2215 24.4357 81.0211 24.7362 80.9925 24.6789Z" fill="#FFD57F"/>
<path d="M74.6515 25.3374C70.8668 26.811 69.1529 29.4436 69.1529 29.4436C69.1529 29.4436 71.4952 29.3434 72.1664 29.4722C72.5949 29.5581 73.0091 29.6868 73.4375 29.7727C73.8089 29.8585 74.1945 29.9443 74.5658 29.9587C75.1085 29.9873 75.6655 29.973 76.2225 29.9157C76.7224 29.8728 77.2222 29.787 77.7078 29.6582C78.222 29.5008 78.7219 29.2719 79.2217 29.043C79.5645 28.8856 80.8356 27.7124 81.1355 27.3118C81.3212 27.0543 81.5068 26.811 81.6639 26.5392C81.821 26.2817 81.7639 26.1529 81.464 26.11C80.7356 25.9955 80.0072 25.9097 79.2931 25.7666C78.8361 25.6664 78.3934 25.4661 77.9363 25.3374C77.7221 25.2802 76.5367 24.7794 74.6515 25.3374Z" fill="#FFD57F"/>
<path d="M71.6235 14.3213C70.2096 13.234 68.61 12.5472 66.8533 12.2754C66.1678 12.1752 64.5682 12.118 64.5111 12.1609C64.711 12.2467 65.8536 12.6903 67.2818 14.4644C67.7245 15.0367 67.9959 15.6948 68.2958 16.3387C69.2813 18.4561 69.6097 19.9441 71.2807 21.5895C71.8235 22.1188 75.3368 23.6068 75.3368 23.6068C75.3368 23.6068 73.7087 20.9885 73.6087 20.6166" fill="#FFD57F"/>
<path d="M76.1653 9.68567C76.1653 9.97182 76.1938 10.258 76.2081 10.5298C76.2367 10.9161 76.4795 11.145 76.7651 11.3596C77.2793 11.7316 77.8077 12.0893 78.3076 12.4899C78.8217 12.8905 79.3073 13.334 79.8072 13.749C79.9357 13.8491 80.05 13.9493 80.1928 14.0351C80.4642 14.2068 80.7641 14.1209 80.9355 13.8348C81.264 13.2482 81.5924 12.6616 81.8924 12.0607C81.9495 11.9462 81.9638 11.7602 81.9209 11.6458C81.7638 11.2452 81.5782 10.8589 81.3782 10.4869C81.2211 10.2007 81.0497 9.91459 80.8641 9.65705C78.7075 7.18188 76.9222 6.28052 76.1653 5.30762C76.251 6.03729 76.1653 8.79861 76.1653 9.68567Z" fill="#FFD57F"/>
<path d="M72.9803 23.4785C73.6087 23.8219 74.2371 24.1796 74.8798 24.5373C74.7941 24.5659 72.4804 25.0237 71.4379 25.8106C71.3522 25.8679 71.1951 25.8822 71.1094 25.8536L70.5524 25.5531C70.281 25.4244 69.9811 25.3242 69.7097 25.2097C69.167 24.9665 68.6243 24.7376 68.0959 24.4801C67.8388 24.3513 67.596 24.1796 67.3675 24.0222C67.2247 23.9221 67.2532 23.779 67.3961 23.6932C67.4675 23.6502 67.5674 23.6073 67.6531 23.593C68.0673 23.5215 68.4958 23.4213 68.9242 23.3784C69.8668 23.2782 70.7952 23.1924 71.7378 23.1352C71.9806 23.1209 72.2376 23.221 72.4804 23.2782C72.6661 23.3212 72.8232 23.407 72.9803 23.4785Z" fill="#FFD57F"/>
<path d="M85.6053 25.2528C85.2911 25.2528 84.8912 25.2242 84.577 25.167C83.5487 24.9953 82.6632 24.5231 81.9633 23.7505C81.3921 23.121 80.9779 22.4056 80.6637 21.6187C80.2638 20.6029 80.0924 19.5442 80.2495 18.4568C80.3495 17.813 80.4923 17.1548 80.6637 16.5253C80.9922 15.3664 81.4064 14.2218 82.0205 13.1917C82.5203 12.3619 85.5624 6.6103 85.591 6.56738C85.6053 6.6103 88.6616 12.3619 89.1615 13.1917C89.7756 14.2361 90.2041 15.3664 90.5183 16.5253C90.6896 17.1548 90.8467 17.7987 90.9324 18.4568C91.0895 19.5442 90.9182 20.6029 90.5183 21.6187C90.2041 22.4056 89.7899 23.121 89.2186 23.7505C88.5188 24.5374 87.6333 25.0096 86.605 25.167C86.3051 25.2242 85.9195 25.2528 85.6053 25.2528Z" fill="#FFD57F"/>
<path d="M82.8205 10.6161C82.3492 10.7019 81.2209 9.28547 81.2066 7.66874C81.1923 5.35095 84.9056 1.73119 85.2341 1.25905C85.6055 0.70106 85.6197 0 85.6197 0C85.6197 0 85.5912 0.70106 85.9625 1.25905C86.291 1.7455 90.0043 5.35095 89.99 7.66874C89.9758 9.27117 88.8475 10.6876 88.3762 10.6161C88.2762 10.5016 86.2482 6.88184 85.5912 4.73573C85.6055 4.73573 82.9205 10.5016 82.8205 10.6161Z" fill="#FFD57F"/>
<path d="M85.6052 26.2105C85.2196 26.2105 84.7625 26.1819 84.3912 26.1103C84.2912 26.096 84.177 26.0817 84.077 26.1103C83.0201 26.4251 82.2346 27.0832 81.7919 28.0991C81.1064 29.6729 81.5919 31.1036 82.8059 32.148C83.0059 32.3197 83.7628 32.7489 83.9199 32.8062C84.3912 32.9779 84.7768 33.264 85.1053 33.6503C85.2339 33.8077 85.6052 34.9952 85.6195 35.0095C85.6338 35.0095 85.9908 33.822 86.1336 33.6503C86.4478 33.264 86.8334 32.9779 87.319 32.8062C87.4761 32.7489 88.2331 32.3197 88.433 32.148C89.647 31.1179 90.1326 29.6729 89.447 28.0991C89.0043 27.0832 88.2188 26.4251 87.1619 26.1103C87.0619 26.0817 86.9477 26.0817 86.8477 26.1103C86.4478 26.1819 85.9765 26.2105 85.6052 26.2105Z" fill="#FFD57F"/>
<path d="M28.9314 19.2153H27.8464V23.7569C27.8464 24.4583 27.7309 25.0696 27.4999 25.5905C27.2688 26.1166 26.9448 26.5525 26.5279 26.8981C26.116 27.2488 25.6263 27.5093 25.0587 27.6795C24.4911 27.8549 23.8733 27.9426 23.2052 27.9426C22.949 27.9426 22.7029 27.9193 22.4668 27.8729C22.2307 27.8317 22.0223 27.7723 21.8415 27.695C21.6606 27.6176 21.515 27.5248 21.4044 27.4164C21.299 27.3133 21.2462 27.1972 21.2462 27.0683C21.2462 26.9754 21.2588 26.88 21.2839 26.782C21.309 26.6892 21.3467 26.6041 21.3969 26.5267C21.4471 26.4493 21.5074 26.3848 21.5777 26.3333C21.6531 26.2868 21.736 26.2636 21.8264 26.2636C21.8867 26.2636 21.9369 26.292 21.9771 26.3487C22.0173 26.4055 22.06 26.4751 22.1052 26.5576C22.1504 26.6402 22.2031 26.7304 22.2634 26.8284C22.3237 26.9316 22.399 27.0244 22.4894 27.107C22.5798 27.1895 22.6903 27.2591 22.8209 27.3159C22.9515 27.3726 23.1148 27.401 23.3107 27.401C23.6974 27.401 24.039 27.3288 24.3354 27.1843C24.6317 27.0399 24.8779 26.8362 25.0738 26.5731C25.2747 26.3152 25.4254 26.0032 25.5258 25.6369C25.6313 25.2759 25.684 24.8761 25.684 24.4377V23.9658C25.4731 24.0122 25.2596 24.0457 25.0436 24.0663C24.8326 24.0921 24.5941 24.105 24.3278 24.105C23.6447 24.105 23.0043 23.9993 22.4065 23.7878C21.8088 23.5712 21.2864 23.2385 20.8394 22.7897C20.3973 22.341 20.0482 21.7685 19.7921 21.0721C19.5359 20.3758 19.4078 19.5454 19.4078 18.5808C19.4078 17.9103 19.4781 17.2914 19.6188 16.724C19.7594 16.1566 19.9553 15.646 20.2065 15.1921C20.4576 14.733 20.754 14.3307 21.0955 13.9851C21.4421 13.6395 21.8163 13.3507 22.2182 13.1186C22.625 12.8865 23.052 12.7111 23.499 12.5925C23.9511 12.4738 24.4082 12.4145 24.8703 12.4145C25.3073 12.4145 25.7142 12.4583 26.0909 12.546C26.4676 12.6286 26.7941 12.7524 27.0704 12.9174C27.3517 13.0773 27.5727 13.2785 27.7334 13.5209C27.8942 13.7582 27.9745 14.0289 27.9745 14.3333C27.9745 14.4725 27.9494 14.6195 27.8992 14.7743C27.854 14.9239 27.7862 15.0631 27.6958 15.1921C27.6053 15.3159 27.4898 15.419 27.3492 15.5015C27.2136 15.5789 27.0553 15.6176 26.8745 15.6176C26.6585 15.6176 26.4978 15.5557 26.3923 15.4319C26.2918 15.303 26.214 15.1456 26.1587 14.96C26.1085 14.7743 26.0708 14.5705 26.0457 14.3487C26.0206 14.1269 25.9779 13.9232 25.9176 13.7375C25.8573 13.5518 25.7644 13.3971 25.6388 13.2733C25.5183 13.1444 25.34 13.0799 25.1039 13.0799C24.9281 13.0799 24.7297 13.1237 24.5087 13.2114C24.2877 13.2991 24.0641 13.4384 23.8381 13.6292C23.6121 13.8149 23.3885 14.0547 23.1675 14.3487C22.9515 14.6376 22.7581 14.9857 22.5874 15.3932C22.4216 15.8007 22.286 16.2701 22.1805 16.8014C22.08 17.3275 22.0298 17.9206 22.0298 18.5808C22.0298 19.3133 22.075 19.94 22.1654 20.4609C22.2558 20.9767 22.3739 21.41 22.5196 21.7607C22.6702 22.1063 22.841 22.3823 23.0319 22.5886C23.2278 22.7897 23.4287 22.9419 23.6347 23.0451C23.8406 23.1482 24.044 23.2153 24.245 23.2462C24.4509 23.272 24.6393 23.2849 24.81 23.2849C24.9858 23.2849 25.1466 23.272 25.2923 23.2462C25.4379 23.2153 25.5685 23.174 25.684 23.1224V19.2153H24.358V18.5267H28.9314V19.2153Z" fill="black"/>
<path d="M29.6924 20.0199C29.6924 19.3442 29.7878 18.7536 29.9787 18.2482C30.1696 17.7375 30.4232 17.312 30.7397 16.9716C31.0612 16.6311 31.4329 16.3758 31.8548 16.2056C32.2767 16.0354 32.7188 15.9503 33.1809 15.9503C33.643 15.9503 34.085 16.0302 34.5069 16.1901C34.9289 16.3449 35.2981 16.5847 35.6145 16.9097C35.936 17.2346 36.1922 17.6473 36.383 18.1476C36.5739 18.6427 36.6693 19.2308 36.6693 19.9116C36.6693 20.5873 36.5739 21.1856 36.383 21.7066C36.1922 22.2275 35.936 22.666 35.6145 23.0219C35.2981 23.3778 34.9289 23.6485 34.5069 23.8342C34.085 24.0148 33.643 24.105 33.1809 24.105C32.7188 24.105 32.2767 24.0199 31.8548 23.8497C31.4329 23.6743 31.0612 23.4164 30.7397 23.076C30.4232 22.7356 30.1696 22.3101 29.9787 21.7994C29.7878 21.2888 29.6924 20.6956 29.6924 20.0199ZM34.3261 19.9426C34.3261 19.5299 34.3111 19.1328 34.2809 18.7511C34.2558 18.3642 34.2031 18.0212 34.1227 17.722C34.0423 17.4229 33.9268 17.1856 33.7761 17.0103C33.6254 16.8297 33.427 16.7395 33.1809 16.7395C32.9347 16.7395 32.7363 16.8349 32.5857 17.0257C32.435 17.2114 32.3194 17.459 32.2391 17.7685C32.1587 18.0728 32.106 18.421 32.0808 18.813C32.0557 19.205 32.0432 19.6073 32.0432 20.0199C32.0432 20.4326 32.0557 20.8375 32.0808 21.2346C32.106 21.6266 32.1587 21.9774 32.2391 22.2868C32.3194 22.5963 32.435 22.8465 32.5857 23.0373C32.7363 23.223 32.9347 23.3159 33.1809 23.3159C33.427 23.3159 33.6254 23.2179 33.7761 23.0219C33.9268 22.8259 34.0423 22.568 34.1227 22.2482C34.2031 21.9284 34.2558 21.5673 34.2809 21.165C34.3111 20.7627 34.3261 20.3552 34.3261 19.9426Z" fill="black"/>
<path d="M40.414 23.3004C40.414 23.3674 40.4014 23.4474 40.3763 23.5402C40.3562 23.6331 40.3035 23.7208 40.2181 23.8033C40.1377 23.8858 40.0172 23.9554 39.8564 24.0122C39.7007 24.0741 39.4898 24.105 39.2235 24.105C38.9573 24.105 38.7489 24.0715 38.5982 24.0044C38.4475 23.9426 38.3345 23.8678 38.2591 23.7801C38.1888 23.6924 38.1436 23.6021 38.1235 23.5093C38.1084 23.4164 38.1009 23.3416 38.1009 23.2849V13.3043C38.1009 13.1547 38.0657 13.0257 37.9954 12.9174C37.9301 12.8039 37.8171 12.7472 37.6564 12.7472C37.571 12.7472 37.4956 12.7627 37.4303 12.7936C37.3701 12.8194 37.3048 12.8607 37.2344 12.9174L37.0837 12.7317C37.1993 12.6337 37.3274 12.5383 37.468 12.4455C37.6087 12.3475 37.7619 12.2623 37.9276 12.1901C38.0984 12.1179 38.2792 12.0586 38.4701 12.0122C38.661 11.9658 38.8619 11.9426 39.0729 11.9426C39.3994 11.9426 39.653 11.989 39.8338 12.0818C40.0147 12.1695 40.1478 12.2804 40.2332 12.4145C40.3186 12.5435 40.3688 12.6827 40.3839 12.8323C40.404 12.9767 40.414 13.1057 40.414 13.2191V23.3004Z" fill="black"/>
<path d="M46.5019 19.7801C46.5019 19.7233 46.5019 19.6099 46.5019 19.4397C46.5019 19.2643 46.4969 19.0657 46.4868 18.8439C46.4768 18.617 46.4592 18.3771 46.4341 18.1244C46.409 17.8716 46.3688 17.6369 46.3135 17.4203C46.193 17.2604 46.0573 17.1186 45.9067 16.9948C45.761 16.8658 45.5726 16.8014 45.3416 16.8014C44.9498 16.8014 44.6609 17.0644 44.4751 17.5905C44.2943 18.1166 44.2039 18.9316 44.2039 20.0354C44.2039 20.5202 44.2239 20.9638 44.2641 21.3661C44.3093 21.7685 44.3746 22.1141 44.46 22.4029C44.5504 22.6917 44.6635 22.9161 44.7991 23.076C44.9397 23.2359 45.1055 23.3159 45.2964 23.3159C46.1 23.3159 46.5019 22.1373 46.5019 19.7801ZM46.4115 16.3758C46.316 15.86 46.1829 15.3803 46.0121 14.9367C45.8414 14.488 45.6354 14.1012 45.3943 13.7762C45.1582 13.4513 44.887 13.1959 44.5806 13.0102C44.2792 12.8246 43.9527 12.7317 43.6011 12.7317C43.4002 12.7317 43.2168 12.7575 43.0511 12.8091C42.8903 12.8607 42.7497 12.9226 42.6291 12.9948C42.5086 13.0618 42.4081 13.1289 42.3278 13.1959C42.2524 13.2578 42.1972 13.3043 42.162 13.3352L41.9661 13.0644C42.0867 12.9045 42.2323 12.7549 42.4031 12.6157C42.5789 12.4764 42.7698 12.3578 42.9757 12.2598C43.1817 12.1618 43.3977 12.0844 43.6237 12.0277C43.8548 11.9709 44.0833 11.9426 44.3093 11.9426C45.0527 11.9426 45.7057 12.1102 46.2683 12.4455C46.8309 12.7756 47.3005 13.2449 47.6773 13.8536C48.054 14.4622 48.3378 15.1972 48.5287 16.0586C48.7195 16.92 48.815 17.8768 48.815 18.929C48.815 19.7801 48.7296 20.528 48.5588 21.1727C48.393 21.8175 48.1544 22.3591 47.843 22.7975C47.5316 23.2308 47.1524 23.5583 46.7053 23.7801C46.2633 23.9967 45.7635 24.105 45.2059 24.105C44.8192 24.105 44.4249 24.0354 44.023 23.8961C43.6262 23.7517 43.2645 23.5196 42.9381 23.1998C42.6166 22.88 42.3529 22.4622 42.1469 21.9464C41.941 21.4255 41.838 20.7885 41.838 20.0354C41.838 19.3855 41.9259 18.8078 42.1017 18.3023C42.2826 17.7968 42.5237 17.3713 42.825 17.0257C43.1264 16.675 43.4755 16.4093 43.8723 16.2288C44.2691 16.0431 44.6886 15.9503 45.1306 15.9503C45.3014 15.9503 45.4546 15.9658 45.5902 15.9967C45.7258 16.0225 45.8439 16.056 45.9443 16.0973C46.0448 16.1386 46.1327 16.185 46.208 16.2366C46.2834 16.283 46.3512 16.3294 46.4115 16.3758Z" fill="black"/>
<path d="M52.2055 20.43C52.2055 20.595 52.2281 20.7756 52.2733 20.9716C52.3235 21.1624 52.3939 21.3558 52.4843 21.5518C52.5747 21.7478 52.6852 21.9361 52.8158 22.1166C52.9514 22.292 53.1046 22.4493 53.2754 22.5886C53.4512 22.7279 53.6446 22.8387 53.8555 22.9213C54.0665 23.0038 54.2976 23.0451 54.5487 23.0451C54.7245 23.0451 54.8878 23.0244 55.0385 22.9832C55.1892 22.9419 55.3298 22.8852 55.4604 22.813C55.591 22.7407 55.7166 22.6582 55.8371 22.5654C55.9577 22.4674 56.0782 22.3642 56.1988 22.2559L56.3871 22.4416C56.2716 22.6015 56.1234 22.7769 55.9426 22.9677C55.7618 23.1585 55.5433 23.3391 55.2871 23.5093C55.0309 23.6743 54.7321 23.8136 54.3905 23.9271C54.0489 24.0354 53.6597 24.0896 53.2227 24.0896C52.7857 24.0896 52.3587 24.0096 51.9418 23.8497C51.5299 23.6847 51.1632 23.4396 50.8417 23.1147C50.5203 22.7897 50.2616 22.3848 50.0657 21.9C49.8748 21.4152 49.7794 20.8478 49.7794 20.1979C49.7794 19.7285 49.8371 19.2978 49.9527 18.9058C50.0682 18.5138 50.2239 18.1605 50.4198 17.8458C50.6207 17.5312 50.8518 17.2553 51.113 17.018C51.3792 16.7807 51.658 16.5847 51.9493 16.43C52.2407 16.2701 52.537 16.1514 52.8384 16.0741C53.1448 15.9916 53.4386 15.9503 53.7199 15.9503C54.0916 15.9503 54.4156 15.9916 54.6919 16.0741C54.9681 16.1566 55.1967 16.2675 55.3775 16.4068C55.5634 16.546 55.7015 16.7085 55.7919 16.8942C55.8823 17.0747 55.9275 17.2656 55.9275 17.4667C55.9275 17.7092 55.8597 17.9284 55.7241 18.1244C55.5885 18.3152 55.4077 18.4828 55.1816 18.6273L52.2055 20.43ZM53.7199 18.8594C53.7852 18.8181 53.838 18.7794 53.8782 18.7433C53.9234 18.7021 53.9585 18.6556 53.9836 18.6041C54.0088 18.5473 54.0263 18.4803 54.0364 18.4029C54.0514 18.3204 54.059 18.2198 54.059 18.1012C54.059 17.9722 54.0439 17.8304 54.0138 17.6756C53.9887 17.5157 53.9435 17.3661 53.8782 17.2269C53.8129 17.0876 53.73 16.9716 53.6295 16.8787C53.5291 16.7859 53.4085 16.7395 53.2679 16.7395C53.087 16.7395 52.9313 16.7962 52.8007 16.9097C52.6751 17.018 52.5697 17.1598 52.4843 17.3352C52.4039 17.5106 52.3386 17.7117 52.2884 17.9387C52.2432 18.1605 52.208 18.3848 52.1829 18.6118C52.1578 18.8387 52.1427 19.058 52.1377 19.2694C52.1327 19.4758 52.1301 19.6511 52.1301 19.7955L53.7199 18.8594Z" fill="black"/>
<path d="M61.8346 20.1282C61.8346 19.4783 61.8044 18.96 61.7442 18.5731C61.6889 18.1811 61.6136 17.8845 61.5181 17.6834C61.4227 17.477 61.3172 17.3429 61.2017 17.281C61.0862 17.214 60.9681 17.1805 60.8476 17.1805C60.7019 17.1805 60.5713 17.2217 60.4558 17.3043C60.3453 17.3816 60.2473 17.4719 60.1619 17.575C60.0816 17.6782 60.0112 17.7814 59.951 17.8845C59.8957 17.9877 59.848 18.0651 59.8078 18.1166V23.2849C59.8078 23.352 59.7978 23.4345 59.7777 23.5325C59.7576 23.6253 59.7073 23.7156 59.627 23.8033C59.5516 23.8858 59.4361 23.9554 59.2804 24.0122C59.1297 24.0741 58.9212 24.105 58.655 24.105C58.3888 24.105 58.1778 24.0715 58.0221 24.0044C57.8714 23.9426 57.7559 23.8678 57.6755 23.7801C57.5952 23.6924 57.5449 23.6021 57.5249 23.5093C57.5048 23.4164 57.4947 23.3416 57.4947 23.2849V17.312C57.4947 17.1624 57.4595 17.0335 57.3892 16.9251C57.3239 16.8117 57.2109 16.7549 57.0502 16.7549C56.9648 16.7549 56.892 16.7704 56.8317 16.8014C56.7714 16.8323 56.7061 16.8761 56.6358 16.9329L56.4776 16.7395C56.5931 16.6415 56.7212 16.546 56.8618 16.4532C57.0075 16.3552 57.1632 16.2701 57.329 16.1979C57.4947 16.1257 57.673 16.0663 57.8639 16.0199C58.0548 15.9735 58.2557 15.9503 58.4667 15.9503C58.7932 15.9503 59.0468 16.007 59.2276 16.1205C59.4085 16.2288 59.5416 16.3603 59.627 16.5151C59.7124 16.6698 59.7626 16.8323 59.7777 17.0025C59.7978 17.1676 59.8078 17.3068 59.8078 17.4203C59.9937 17.1469 60.2046 16.9019 60.4407 16.6853C60.5361 16.5925 60.6416 16.5022 60.7572 16.4145C60.8777 16.3268 61.0033 16.2495 61.1339 16.1824C61.2695 16.1102 61.4101 16.0534 61.5558 16.0122C61.7065 15.9709 61.8597 15.9503 62.0154 15.9503C62.357 15.9503 62.6584 16.0173 62.9196 16.1514C63.1858 16.2856 63.4093 16.5099 63.5901 16.8246C63.771 17.1392 63.9091 17.557 64.0045 18.0779C64.1 18.5937 64.1477 19.2359 64.1477 20.0044C64.1477 20.7524 64.0824 21.4023 63.9518 21.9542C63.8212 22.5061 63.6504 22.9754 63.4394 23.3623C63.2285 23.7491 62.9899 24.0638 62.7237 24.3062C62.4574 24.5538 62.1887 24.7472 61.9175 24.8865C61.6462 25.0257 61.385 25.1211 61.1339 25.1727C60.8877 25.2295 60.6743 25.2604 60.4934 25.2656L60.4106 24.9484C60.5613 24.9122 60.6994 24.8555 60.825 24.7781C60.9556 24.7008 61.0736 24.5873 61.1791 24.4377C61.2846 24.2881 61.3775 24.0999 61.4579 23.8729C61.5382 23.6408 61.606 23.352 61.6613 23.0064C61.7216 22.6608 61.7643 22.2533 61.7894 21.7839C61.8195 21.3094 61.8346 20.7575 61.8346 20.1282Z" fill="black"/>
<path d="M116.683 18.6581H113.707V22.9675C113.707 23.3647 113.604 23.6535 113.398 23.8341C113.197 24.0146 112.888 24.1049 112.471 24.1049C112.049 24.1049 111.738 24.0146 111.537 23.8341C111.336 23.6535 111.235 23.3647 111.235 22.9675V18.6581H110.06V17.9772H111.235V13.1107C111.075 13.1261 110.889 13.1571 110.678 13.2035C110.472 13.2448 110.258 13.3067 110.037 13.3892C109.821 13.4666 109.608 13.5594 109.397 13.6677C109.186 13.776 108.998 13.9024 108.832 14.0468C108.666 14.1913 108.53 14.3537 108.425 14.5343C108.325 14.7096 108.274 14.9005 108.274 15.1068C108.274 15.2718 108.294 15.4034 108.335 15.5014C108.38 15.5994 108.43 15.6742 108.485 15.7257C108.54 15.7722 108.596 15.8031 108.651 15.8186C108.711 15.8289 108.754 15.8341 108.779 15.8341C108.905 15.8341 109.008 15.8134 109.088 15.7722C109.168 15.7257 109.241 15.6793 109.307 15.6329C109.372 15.5813 109.432 15.5349 109.487 15.4936C109.548 15.4472 109.615 15.424 109.691 15.424C109.751 15.424 109.814 15.4395 109.879 15.4704C109.949 15.4962 110.012 15.5401 110.067 15.602C110.128 15.6639 110.178 15.7464 110.218 15.8495C110.258 15.9475 110.278 16.0688 110.278 16.2132C110.278 16.4195 110.238 16.6 110.158 16.7548C110.083 16.9043 109.982 17.0281 109.857 17.1261C109.736 17.2241 109.595 17.2989 109.435 17.3505C109.279 17.3969 109.123 17.4201 108.967 17.4201C108.726 17.4201 108.508 17.3789 108.312 17.2963C108.121 17.2087 107.958 17.09 107.822 16.9404C107.687 16.7909 107.584 16.6181 107.513 16.4221C107.443 16.2209 107.408 16.0043 107.408 15.7722C107.408 15.1687 107.569 14.6555 107.89 14.2325C108.217 13.8096 108.661 13.464 109.224 13.1958C109.786 12.9224 110.442 12.7238 111.19 12.6C111.939 12.4762 112.74 12.4143 113.594 12.4143C113.94 12.4143 114.302 12.4195 114.679 12.4298C115.055 12.435 115.409 12.4453 115.741 12.4608C116.078 12.4762 116.374 12.4943 116.63 12.5149C116.886 12.5355 117.067 12.5588 117.173 12.5845C117.273 12.6103 117.353 12.6387 117.414 12.6697C117.474 12.7006 117.519 12.7367 117.549 12.778C117.579 12.8192 117.599 12.8682 117.61 12.925C117.62 12.9766 117.625 13.0384 117.625 13.1107C117.625 13.1726 117.617 13.2422 117.602 13.3196C117.587 13.3918 117.564 13.4614 117.534 13.5285C117.504 13.5904 117.466 13.6445 117.421 13.6909C117.376 13.7374 117.321 13.7606 117.255 13.7606C117.215 13.7606 117.17 13.7425 117.12 13.7064C117.075 13.6703 117.007 13.6239 116.916 13.5671C116.831 13.5104 116.713 13.4511 116.562 13.3892C116.417 13.3273 116.218 13.268 115.967 13.2112C115.721 13.1545 115.412 13.1081 115.04 13.072C114.674 13.0359 114.229 13.0178 113.707 13.0178V17.9772H116.683V18.6581Z" fill="black"/>
<path d="M120.442 23.3002C120.442 23.3673 120.43 23.4472 120.405 23.5401C120.385 23.6329 120.332 23.7206 120.247 23.8031C120.166 23.8856 120.046 23.9553 119.885 24.012C119.729 24.0739 119.518 24.1049 119.252 24.1049C118.986 24.1049 118.777 24.0713 118.627 24.0043C118.476 23.9424 118.363 23.8676 118.288 23.7799C118.217 23.6922 118.172 23.602 118.152 23.5091C118.137 23.4163 118.129 23.3415 118.129 23.2847V13.3041C118.129 13.1545 118.094 13.0256 118.024 12.9172C117.959 12.8038 117.846 12.747 117.685 12.747C117.599 12.747 117.524 12.7625 117.459 12.7934C117.399 12.8192 117.333 12.8605 117.263 12.9172L117.112 12.7316C117.228 12.6335 117.356 12.5381 117.497 12.4453C117.637 12.3473 117.79 12.2622 117.956 12.19C118.127 12.1178 118.308 12.0584 118.499 12.012C118.689 11.9656 118.89 11.9424 119.101 11.9424C119.428 11.9424 119.682 11.9888 119.862 12.0816C120.043 12.1693 120.176 12.2802 120.262 12.4143C120.347 12.5433 120.397 12.6826 120.412 12.8321C120.432 12.9766 120.442 13.1055 120.442 13.219V23.3002Z" fill="black"/>
<path d="M121.867 20.0198C121.867 19.3441 121.962 18.7535 122.153 18.248C122.344 17.7374 122.597 17.3118 122.914 16.9714C123.235 16.631 123.607 16.3757 124.029 16.2054C124.451 16.0352 124.893 15.9501 125.355 15.9501C125.817 15.9501 126.259 16.0301 126.681 16.19C127.103 16.3447 127.472 16.5845 127.789 16.9095C128.11 17.2345 128.366 17.6471 128.557 18.1474C128.748 18.6426 128.843 19.2306 128.843 19.9114C128.843 20.5871 128.748 21.1855 128.557 21.7064C128.366 22.2274 128.11 22.6658 127.789 23.0217C127.472 23.3776 127.103 23.6484 126.681 23.8341C126.259 24.0146 125.817 24.1049 125.355 24.1049C124.893 24.1049 124.451 24.0198 124.029 23.8495C123.607 23.6742 123.235 23.4163 122.914 23.0758C122.597 22.7354 122.344 22.3099 122.153 21.7992C121.962 21.2886 121.867 20.6954 121.867 20.0198ZM126.5 19.9424C126.5 19.5297 126.485 19.1326 126.455 18.7509C126.43 18.364 126.377 18.021 126.297 17.7219C126.216 17.4227 126.101 17.1855 125.95 17.0101C125.8 16.8296 125.601 16.7393 125.355 16.7393C125.109 16.7393 124.91 16.8347 124.76 17.0256C124.609 17.2112 124.494 17.4588 124.413 17.7683C124.333 18.0726 124.28 18.4208 124.255 18.8128C124.23 19.2048 124.217 19.6071 124.217 20.0198C124.217 20.4324 124.23 20.8373 124.255 21.2345C124.28 21.6265 124.333 21.9772 124.413 22.2867C124.494 22.5962 124.609 22.8463 124.76 23.0372C124.91 23.2228 125.109 23.3157 125.355 23.3157C125.601 23.3157 125.8 23.2177 125.95 23.0217C126.101 22.8257 126.216 22.5678 126.297 22.248C126.377 21.9282 126.43 21.5671 126.455 21.1648C126.485 20.7625 126.5 20.355 126.5 19.9424Z" fill="black"/>
<path d="M139.437 18.4027C139.437 18.0623 139.414 17.7812 139.369 17.5594C139.324 17.3376 139.274 17.1545 139.218 17.0101C139.168 16.8605 139.121 16.7393 139.075 16.6464C139.03 16.5484 139.008 16.4582 139.008 16.3757C139.008 16.2983 139.038 16.2338 139.098 16.1822C139.158 16.1306 139.229 16.0868 139.309 16.0507C139.394 16.0146 139.48 15.9888 139.565 15.9733C139.655 15.9579 139.728 15.9501 139.784 15.9501C139.929 15.9501 140.035 15.9708 140.1 16.012C140.165 16.0533 140.218 16.1332 140.258 16.2519C140.303 16.4014 140.334 16.6 140.349 16.8476C140.369 17.09 140.379 17.3505 140.379 17.629C140.379 18.0262 140.356 18.462 140.311 18.9366C140.266 19.4111 140.193 19.8882 140.092 20.3679C139.997 20.8476 139.871 21.3118 139.716 21.7606C139.565 22.2093 139.382 22.609 139.166 22.9598C138.95 23.3054 138.701 23.5839 138.42 23.7954C138.139 24.0017 137.82 24.1049 137.463 24.1049C137.182 24.1049 136.928 24.0481 136.702 23.9346C136.481 23.816 136.283 23.6561 136.107 23.455C135.931 23.2538 135.775 23.0191 135.64 22.7509C135.509 22.4775 135.393 22.1861 135.293 21.8766C135.177 22.1913 135.044 22.4853 134.894 22.7586C134.743 23.0268 134.575 23.2615 134.389 23.4627C134.208 23.6639 134.007 23.8212 133.786 23.9346C133.565 24.0481 133.326 24.1049 133.07 24.1049C132.754 24.1049 132.473 24.0352 132.226 23.896C131.985 23.7515 131.772 23.5581 131.586 23.3157C131.4 23.0681 131.239 22.7818 131.104 22.4569C130.968 22.1319 130.85 21.7889 130.75 21.4279C130.654 21.0668 130.574 20.6954 130.509 20.3138C130.443 19.9321 130.388 19.5633 130.343 19.2074C130.298 18.8515 130.26 18.5188 130.23 18.2093C130.2 17.8998 130.17 17.6316 130.139 17.4047C130.104 17.1983 130.051 17.0384 129.981 16.925C129.916 16.8115 129.803 16.7548 129.642 16.7548C129.557 16.7548 129.484 16.7702 129.424 16.8012C129.363 16.8321 129.298 16.876 129.228 16.9327L129.07 16.7393C129.185 16.6413 129.313 16.5459 129.454 16.453C129.599 16.355 129.755 16.2699 129.921 16.1977C130.087 16.1255 130.265 16.0662 130.456 16.0198C130.647 15.9733 130.848 15.9501 131.059 15.9501C131.36 15.9501 131.604 16.0043 131.789 16.1126C131.975 16.2158 132.121 16.3473 132.226 16.5072C132.337 16.6619 132.415 16.8296 132.46 17.0101C132.505 17.1906 132.538 17.3531 132.558 17.4975C132.648 18.2764 132.736 18.9624 132.822 19.5555C132.912 20.1487 133.008 20.6464 133.108 21.0488C133.208 21.4459 133.316 21.7477 133.432 21.954C133.553 22.1551 133.693 22.2557 133.854 22.2557C133.959 22.2557 134.062 22.2093 134.163 22.1165C134.263 22.0236 134.359 21.8947 134.449 21.7296C134.54 21.5646 134.625 21.366 134.705 21.1339C134.786 20.8966 134.856 20.6361 134.916 20.3524C134.866 20.0688 134.823 19.7876 134.788 19.5091C134.753 19.2306 134.72 18.9649 134.69 18.7122C134.665 18.4543 134.64 18.2145 134.615 17.9927C134.59 17.7709 134.562 17.5749 134.532 17.4047C134.457 16.9198 134.499 16.5562 134.66 16.3138C134.826 16.0713 135.155 15.9501 135.647 15.9501C135.863 15.9501 136.044 15.9708 136.19 16.012C136.34 16.0481 136.463 16.1203 136.559 16.2286C136.659 16.3318 136.74 16.4762 136.8 16.6619C136.86 16.8424 136.908 17.0746 136.943 17.3582C137.038 18.1319 137.131 18.8231 137.222 19.4317C137.312 20.0404 137.408 20.5536 137.508 20.9714C137.609 21.3892 137.717 21.709 137.832 21.9308C137.953 22.1474 138.093 22.2557 138.254 22.2557C138.425 22.2557 138.583 22.1474 138.729 21.9308C138.874 21.7141 139 21.4279 139.105 21.072C139.211 20.7161 139.291 20.306 139.347 19.8418C139.407 19.3776 139.437 18.8979 139.437 18.4027Z" fill="black"/>
<path d="M143.792 20.4298C143.792 20.5949 143.815 20.7754 143.86 20.9714C143.91 21.1622 143.98 21.3557 144.071 21.5517C144.161 21.7477 144.272 21.9359 144.402 22.1165C144.538 22.2918 144.691 22.4492 144.862 22.5884C145.038 22.7277 145.231 22.8386 145.442 22.9211C145.653 23.0036 145.884 23.0449 146.135 23.0449C146.311 23.0449 146.474 23.0243 146.625 22.983C146.776 22.9417 146.916 22.885 147.047 22.8128C147.177 22.7406 147.303 22.658 147.424 22.5652C147.544 22.4672 147.665 22.364 147.785 22.2557L147.974 22.4414C147.858 22.6013 147.71 22.7767 147.529 22.9675C147.348 23.1584 147.13 23.3389 146.874 23.5091C146.617 23.6742 146.318 23.8134 145.977 23.9269C145.635 24.0352 145.246 24.0894 144.809 24.0894C144.372 24.0894 143.945 24.0094 143.528 23.8495C143.116 23.6845 142.75 23.4395 142.428 23.1145C142.107 22.7896 141.848 22.3847 141.652 21.8998C141.461 21.415 141.366 20.8476 141.366 20.1977C141.366 19.7283 141.424 19.2976 141.539 18.9056C141.655 18.5136 141.81 18.1603 142.006 17.8457C142.207 17.531 142.438 17.2551 142.699 17.0178C142.966 16.7806 143.244 16.5845 143.536 16.4298C143.827 16.2699 144.123 16.1513 144.425 16.0739C144.731 15.9914 145.025 15.9501 145.306 15.9501C145.678 15.9501 146.002 15.9914 146.278 16.0739C146.555 16.1564 146.783 16.2673 146.964 16.4066C147.15 16.5459 147.288 16.7083 147.378 16.894C147.469 17.0746 147.514 17.2654 147.514 17.4666C147.514 17.709 147.446 17.9282 147.311 18.1242C147.175 18.315 146.994 18.4827 146.768 18.6271L143.792 20.4298ZM145.306 18.8592C145.372 18.8179 145.424 18.7793 145.465 18.7432C145.51 18.7019 145.545 18.6555 145.57 18.6039C145.595 18.5472 145.613 18.4801 145.623 18.4027C145.638 18.3202 145.645 18.2196 145.645 18.101C145.645 17.972 145.63 17.8302 145.6 17.6755C145.575 17.5156 145.53 17.366 145.465 17.2267C145.399 17.0875 145.316 16.9714 145.216 16.8786C145.115 16.7857 144.995 16.7393 144.854 16.7393C144.673 16.7393 144.518 16.796 144.387 16.9095C144.262 17.0178 144.156 17.1597 144.071 17.335C143.99 17.5104 143.925 17.7116 143.875 17.9385C143.83 18.1603 143.794 18.3847 143.769 18.6116C143.744 18.8386 143.729 19.0578 143.724 19.2693C143.719 19.4756 143.717 19.651 143.717 19.7954L145.306 18.8592Z" fill="black"/>
<path d="M151.394 17.5826C151.585 17.2835 151.789 17.0127 152.005 16.7702C152.095 16.6671 152.193 16.5665 152.298 16.4685C152.404 16.3705 152.512 16.2828 152.622 16.2054C152.738 16.1281 152.856 16.0662 152.976 16.0198C153.097 15.9733 153.218 15.9501 153.338 15.9501C153.594 15.9501 153.795 16.0301 153.941 16.19C154.087 16.3447 154.159 16.5639 154.159 16.8476C154.159 17.023 154.144 17.1932 154.114 17.3582C154.089 17.5181 154.036 17.7141 153.956 17.9463H153.745C153.715 17.7864 153.645 17.6548 153.534 17.5517C153.424 17.4433 153.263 17.3892 153.052 17.3892C152.896 17.3892 152.743 17.4201 152.592 17.482C152.442 17.5388 152.293 17.611 152.148 17.6987C152.007 17.7864 151.871 17.8818 151.741 17.9849C151.615 18.0881 151.5 18.1861 151.394 18.2789V23.3002C151.394 23.3673 151.384 23.4472 151.364 23.5401C151.344 23.6329 151.294 23.7206 151.213 23.8031C151.138 23.8856 151.023 23.9553 150.867 24.012C150.716 24.0739 150.508 24.1049 150.241 24.1049C149.975 24.1049 149.764 24.0713 149.609 24.0043C149.458 23.9424 149.342 23.8676 149.262 23.7799C149.182 23.6922 149.131 23.602 149.111 23.5091C149.091 23.4163 149.081 23.3415 149.081 23.2847V17.3118C149.081 17.1622 149.046 17.0333 148.976 16.925C148.91 16.8115 148.797 16.7548 148.637 16.7548C148.551 16.7548 148.478 16.7702 148.418 16.8012C148.358 16.8321 148.293 16.876 148.222 16.9327L148.064 16.7393C148.18 16.6413 148.308 16.5459 148.448 16.453C148.594 16.355 148.75 16.2699 148.915 16.1977C149.081 16.1255 149.259 16.0662 149.45 16.0198C149.641 15.9733 149.842 15.9501 150.053 15.9501C150.269 15.9501 150.452 15.9811 150.603 16.043C150.759 16.0997 150.884 16.1771 150.98 16.2751C151.08 16.3679 151.158 16.4737 151.213 16.5923C151.269 16.7109 151.309 16.8321 151.334 16.9559C151.364 17.0746 151.382 17.1906 151.387 17.3041C151.392 17.4124 151.394 17.5052 151.394 17.5826Z" fill="black"/>
<path d="M157.542 16.5691C157.427 16.5691 157.316 16.5845 157.211 16.6155C157.11 16.6464 157.02 16.698 156.94 16.7702C156.859 16.8373 156.796 16.925 156.751 17.0333C156.706 17.1365 156.683 17.2602 156.683 17.4047C156.683 17.6058 156.754 17.807 156.894 18.0081C157.04 18.2041 157.218 18.4105 157.429 18.6271C157.645 18.8386 157.876 19.0604 158.123 19.2925C158.374 19.5194 158.605 19.7619 158.816 20.0198C159.032 20.2725 159.21 20.5433 159.351 20.8321C159.496 21.121 159.569 21.4305 159.569 21.7606C159.569 22.1319 159.506 22.462 159.381 22.7509C159.26 23.0397 159.084 23.2847 158.853 23.4859C158.627 23.6871 158.351 23.8418 158.025 23.9501C157.703 24.0533 157.344 24.1049 156.947 24.1049C156.601 24.1049 156.287 24.0559 156.005 23.9579C155.724 23.8547 155.473 23.7309 155.252 23.5865C155.036 23.4369 154.85 23.2796 154.694 23.1145C154.539 22.9495 154.418 22.7999 154.333 22.6658L154.596 22.4724C154.662 22.5497 154.745 22.6348 154.845 22.7277C154.945 22.8154 155.056 22.8979 155.177 22.9753C155.302 23.0526 155.435 23.1171 155.576 23.1687C155.717 23.2151 155.86 23.2383 156.005 23.2383C156.367 23.2383 156.663 23.1506 156.894 22.9753C157.125 22.7947 157.241 22.5291 157.241 22.1784C157.241 21.9824 157.178 21.7812 157.053 21.5749C156.927 21.3634 156.769 21.1468 156.578 20.925C156.387 20.7032 156.181 20.4737 155.96 20.2364C155.739 19.9991 155.533 19.7541 155.342 19.5014C155.151 19.2486 154.993 18.9882 154.868 18.7199C154.742 18.4517 154.679 18.1732 154.679 17.8844C154.679 17.5594 154.742 17.2757 154.868 17.0333C154.998 16.7909 155.169 16.5897 155.38 16.4298C155.596 16.2699 155.84 16.1513 156.111 16.0739C156.387 15.9914 156.671 15.9501 156.962 15.9501C157.299 15.9501 157.605 15.9811 157.881 16.043C158.158 16.1049 158.394 16.2003 158.59 16.3292C158.791 16.453 158.944 16.6103 159.049 16.8012C159.16 16.992 159.215 17.2138 159.215 17.4666C159.215 17.6626 159.152 17.8328 159.027 17.9772C158.901 18.1216 158.725 18.1938 158.499 18.1938C158.283 18.1938 158.118 18.1474 158.002 18.0546C157.891 17.9566 157.836 17.825 157.836 17.66C157.836 17.5517 157.861 17.4666 157.912 17.4047C157.967 17.3428 158.027 17.2938 158.092 17.2577C158.158 17.2164 158.215 17.1829 158.266 17.1571C158.321 17.1261 158.349 17.0875 158.349 17.041C158.349 16.8966 158.273 16.7831 158.123 16.7006C157.972 16.6129 157.778 16.5691 157.542 16.5691Z" fill="black"/>
</mask>
<g mask="url(#mask0_566_635)">
<rect x="-22.6064" y="-1.72559" width="218.506" height="71.7743" transform="rotate(-7.51842 -22.6064 -1.72559)" fill="url(#paint0_linear_566_635)"/>
<rect x="-22.6064" y="-1.72559" width="218.506" height="71.7743" transform="rotate(-7.51842 -22.6064 -1.72559)" fill="url(#paint1_linear_566_635)" style="mix-blend-mode:overlay"/>
<rect x="-22.6064" y="-1.72559" width="218.506" height="71.7743" transform="rotate(-7.51842 -22.6064 -1.72559)" fill="#C1A875" style="mix-blend-mode:color"/>
</g>
<defs>
<linearGradient id="paint0_linear_566_635" x1="-10.4917" y1="43.1649" x2="132.004" y2="-58.4562" gradientUnits="userSpaceOnUse">
<stop stop-color="#576265"/>
<stop offset="0.172016" stop-color="#9EA1A1"/>
<stop offset="0.45741" stop-color="#C7CACA"/>
<stop offset="0.553567" stop-color="#576265"/>
<stop offset="0.776065" stop-color="#C3C5C6"/>
<stop offset="0.925155" stop-color="#757A7B"/>
<stop offset="1" stop-color="#B6BABB"/>
</linearGradient>
<linearGradient id="paint1_linear_566_635" x1="64.6197" y1="34.1616" x2="59.3109" y2="-8.01623" gradientUnits="userSpaceOnUse">
<stop stop-color="white" stop-opacity="0"/>
<stop offset="1" stop-color="white"/>
</linearGradient>
</defs>
</svg>
