<svg width="18" height="26" viewBox="0 0 18 26" fill="none" xmlns="http://www.w3.org/2000/svg">
<path d="M15.2148 25.0781H2.67578C2.12172 25.0775 1.59055 24.8571 1.19877 24.4653C0.806994 24.0735 0.586601 23.5423 0.585938 22.9883V2.08984C0.586601 1.53579 0.806994 1.00461 1.19877 0.612834C1.59055 0.221056 2.12172 0.000663675 2.67578 0H15.2148C15.7689 0.000663675 16.3001 0.221056 16.6919 0.612834C17.0836 1.00461 17.304 1.53579 17.3047 2.08984V22.9883C17.304 23.5423 17.0836 24.0735 16.6919 24.4653C16.3001 24.8571 15.7689 25.0775 15.2148 25.0781ZM2.67578 0.835938C2.34322 0.835938 2.02429 0.968045 1.78914 1.2032C1.55398 1.43835 1.42188 1.75729 1.42188 2.08984V22.9883C1.42188 23.3208 1.55398 23.6398 1.78914 23.8749C2.02429 24.1101 2.34322 24.2422 2.67578 24.2422H15.2148C15.5474 24.2422 15.8663 24.1101 16.1015 23.8749C16.3366 23.6398 16.4688 23.3208 16.4688 22.9883V2.08984C16.4688 1.75729 16.3366 1.43835 16.1015 1.2032C15.8663 0.968045 15.5474 0.835938 15.2148 0.835938H2.67578Z" fill="#DFC693"/>
<path d="M15.2148 21.3164H2.67578C2.45408 21.3164 2.24145 21.2283 2.08468 21.0716C1.92792 20.9148 1.83984 20.7022 1.83984 20.4805V2.08985C1.83984 1.86814 1.92792 1.65552 2.08468 1.49875C2.24145 1.34198 2.45408 1.25391 2.67578 1.25391H5.60156C5.67036 1.2539 5.73809 1.27087 5.79875 1.30331C5.85942 1.33576 5.91113 1.38268 5.94931 1.4399L6.66111 2.50781H11.2295L11.9401 1.4399C11.9784 1.3825 12.0303 1.33547 12.0912 1.30302C12.1521 1.27056 12.2201 1.25369 12.2891 1.25391H15.2148C15.4365 1.25391 15.6492 1.34198 15.8059 1.49875C15.9627 1.65552 16.0508 1.86814 16.0508 2.08985V20.4805C16.0508 20.7022 15.9627 20.9148 15.8059 21.0716C15.6492 21.2283 15.4365 21.3164 15.2148 21.3164ZM2.67578 2.08985V20.4805H15.2148V2.08985H12.5127L11.925 2.97134C11.8487 3.08587 11.7453 3.17979 11.624 3.24476C11.5026 3.30972 11.3671 3.34373 11.2295 3.34375H6.66111C6.52349 3.34373 6.388 3.30972 6.26667 3.24476C6.14534 3.17979 6.04193 3.08587 5.96561 2.97134L5.37795 2.08985H2.67578Z" fill="#DFC693"/>
<path d="M8.10938 2.08984H7.69141C7.58055 2.08984 7.47424 2.04581 7.39586 1.96742C7.31747 1.88904 7.27344 1.78273 7.27344 1.67188C7.27344 1.56102 7.31747 1.45471 7.39586 1.37633C7.47424 1.29794 7.58055 1.25391 7.69141 1.25391H8.10938C8.22023 1.25391 8.32654 1.29794 8.40492 1.37633C8.48331 1.45471 8.52734 1.56102 8.52734 1.67188C8.52734 1.78273 8.48331 1.88904 8.40492 1.96742C8.32654 2.04581 8.22023 2.08984 8.10938 2.08984Z" fill="#DFC693"/>
<path d="M10.1992 2.08984H9.78125C9.6704 2.08984 9.56409 2.04581 9.4857 1.96742C9.40732 1.88904 9.36328 1.78273 9.36328 1.67188C9.36328 1.56102 9.40732 1.45471 9.4857 1.37633C9.56409 1.29794 9.6704 1.25391 9.78125 1.25391H10.1992C10.3101 1.25391 10.4164 1.29794 10.4948 1.37633C10.5732 1.45471 10.6172 1.56102 10.6172 1.67188C10.6172 1.78273 10.5732 1.88904 10.4948 1.96742C10.4164 2.04581 10.3101 2.08984 10.1992 2.08984Z" fill="#DFC693"/>
<path d="M10.1992 23.8242H7.69141C7.4697 23.8242 7.25708 23.7361 7.10031 23.5794C6.94354 23.4226 6.85547 23.21 6.85547 22.9883V22.5703C6.85547 22.3486 6.94354 22.136 7.10031 21.9792C7.25708 21.8224 7.4697 21.7344 7.69141 21.7344H10.1992C10.4209 21.7344 10.6335 21.8224 10.7903 21.9792C10.9471 22.136 11.0352 22.3486 11.0352 22.5703V22.9883C11.0352 23.21 10.9471 23.4226 10.7903 23.5794C10.6335 23.7361 10.4209 23.8242 10.1992 23.8242ZM7.69141 22.5703V22.9883H10.1992V22.5703H7.69141Z" fill="#DFC693"/>
</svg>
