<svg width="14" height="16" viewBox="0 0 14 16" fill="none" xmlns="http://www.w3.org/2000/svg">
<path fill-rule="evenodd" clip-rule="evenodd" d="M7.14561 0C6.07733 0 5.19738 0.839041 5.14657 1.90612L5.05903 3.74455H3.12169C2.60313 3.74455 2.16247 4.12363 2.08499 4.63637L0.613794 14.3722C0.51795 15.0065 1.00904 15.5773 1.6505 15.5773H12.6408C13.2823 15.5773 13.7734 15.0065 13.6775 14.3722L12.2063 4.63637C12.1288 4.12363 11.6882 3.74455 11.1696 3.74455H9.2322L9.14466 1.90612C9.09385 0.839042 8.2139 0 7.14561 0ZM8.66093 4.34368L8.71866 5.55618C8.72653 5.72144 8.86688 5.84903 9.03214 5.84116C9.1974 5.83329 9.32498 5.69294 9.31711 5.52768L9.26073 4.34368H11.1696C11.3919 4.34368 11.5807 4.50614 11.6139 4.72588L13.0851 14.4617C13.1262 14.7335 12.9157 14.9782 12.6408 14.9782H1.6505C1.37559 14.9782 1.16512 14.7335 1.2062 14.4617L2.67739 4.72588C2.71059 4.50614 2.89945 4.34368 3.12169 4.34368H5.0305L4.97411 5.52768C4.96625 5.69294 5.09383 5.83329 5.25909 5.84116C5.42435 5.84903 5.56469 5.72144 5.57256 5.55618L5.6303 4.34368H8.66093ZM8.6324 3.74455L8.54621 1.93461C8.51061 1.18699 7.89409 0.599128 7.14561 0.599128C6.39714 0.599128 5.78062 1.18699 5.74502 1.93461L5.65883 3.74455H8.6324Z" fill="black"/>
</svg>
