<svg width="17" height="15" viewBox="0 0 17 15" fill="none" xmlns="http://www.w3.org/2000/svg">
<path d="M8.06064 14.3562C7.64187 14.3562 7.23254 14.2145 6.90822 13.95C5.22682 12.5803 2.30169 10.159 1.60898 9.32455C0.510087 7.99895 0 6.73633 0 5.3509C0 3.99697 0.466006 2.74694 1.313 1.82752C2.17574 0.892361 3.35965 0.375977 4.64117 0.375977C5.60781 0.375977 6.48945 0.681399 7.26717 1.28595C7.56 1.5095 7.82449 1.7677 8.05749 2.05108C8.29365 1.7677 8.55814 1.51265 8.84782 1.28595C9.62869 0.681399 10.5135 0.375977 11.477 0.375977C12.7616 0.375977 13.9424 0.892361 14.8083 1.82752C15.6553 2.74694 16.1213 3.99697 16.1213 5.3509C16.1213 6.73633 15.6112 7.99895 14.5123 9.32455C13.8196 10.159 10.8945 12.5803 9.21306 13.9468C8.88875 14.2113 8.47942 14.3562 8.06064 14.3562ZM4.64117 1.00571C3.55172 0.999417 2.5095 1.45283 1.77271 2.25574C1.03592 3.05551 0.629738 4.1544 0.629738 5.3509C0.629738 6.58204 1.09574 7.71872 2.09388 8.92152C2.57563 9.50088 4.47429 11.1571 7.30496 13.4588C7.74577 13.8146 8.37551 13.8146 8.81633 13.4588C11.647 11.1571 13.5457 9.50403 14.0274 8.92152C15.0255 7.71872 15.4915 6.58204 15.4915 5.3509C15.4915 4.15755 15.0854 3.05866 14.3454 2.25574C13.6086 1.45283 12.5664 0.999417 11.477 1.00571C10.6552 1.00571 9.89948 1.26706 9.23825 1.78344C8.8856 2.06052 8.57388 2.38484 8.31569 2.74694C8.21493 2.88863 8.01656 2.92012 7.87487 2.81621C7.84968 2.79732 7.82449 2.77213 7.8056 2.74694C7.54741 2.38169 7.23569 2.06052 6.88618 1.78344C6.21866 1.26706 5.46612 1.00571 4.64117 1.00571Z" fill="black"/>
</svg>
