<svg width="14" height="16" viewBox="0 0 14 16" fill="none" xmlns="http://www.w3.org/2000/svg">
<path d="M11.8343 15.6518H1.88522C0.91191 15.6488 0.124135 14.8722 0.121094 13.9126V13.145C0.121094 11.2679 0.921034 9.47774 2.3293 8.21535C2.91632 7.6906 3.78926 7.61863 4.45537 8.04143C5.1519 8.48222 5.98226 8.71611 6.86128 8.71611C7.7403 8.71611 8.57066 8.48222 9.26718 8.04143C9.93329 7.61863 10.8062 7.6906 11.3933 8.21535C12.8015 9.47774 13.6045 11.2679 13.6015 13.145V13.9126C13.5984 14.8752 12.8076 15.6518 11.8343 15.6518ZM3.50639 8.36528C3.22048 8.36528 2.94674 8.47023 2.73687 8.65914C1.45636 9.80759 0.726372 11.4388 0.726372 13.145V13.9126C0.729414 14.5423 1.24344 15.0491 1.88218 15.0521H11.8313C12.47 15.0521 12.9871 14.5423 12.9871 13.9126V13.145C12.9871 11.4388 12.2571 9.81058 10.9766 8.65914C10.5933 8.3173 10.0245 8.26932 9.58959 8.54519C8.79574 9.04895 7.8498 9.31582 6.8552 9.31582C5.86059 9.31582 4.91465 9.04895 4.1208 8.54519C3.94134 8.42825 3.72539 8.36528 3.50639 8.36528Z" fill="black"/>
<path d="M6.86132 8.03561C4.6957 8.03262 2.94069 6.30244 2.93765 4.16747C2.93765 2.03549 4.6957 0.299316 6.86132 0.299316C9.02694 0.302315 10.7819 2.03249 10.785 4.16747C10.7819 6.29945 9.02389 8.03561 6.86132 8.03561ZM6.86132 0.902028C5.03027 0.902028 3.54597 2.36533 3.54597 4.17046C3.54597 5.9756 5.03027 7.4389 6.86132 7.4389C8.69236 7.4389 10.1767 5.9756 10.1767 4.17046C10.1736 2.36533 8.69236 0.902028 6.86132 0.902028Z" fill="black"/>
</svg>
