<svg id="Capa_1" enable-background="new 0 0 512 512" height="512" viewBox="0 0 512 512" width="512" xmlns="http://www.w3.org/2000/svg"><g><path d="m437.02 74.98c-48.353-48.351-112.64-74.98-181.02-74.98s-132.668 26.629-181.02 74.98c-48.351 48.352-74.98 112.64-74.98 181.02s26.629 132.668 74.98 181.02c48.352 48.351 112.64 74.98 181.02 74.98s132.667-26.629 181.02-74.98c48.351-48.352 74.98-112.64 74.98-181.02s-26.629-132.668-74.98-181.02zm-10.607 351.433c-45.519 45.519-106.039 70.587-170.413 70.587s-124.894-25.068-170.413-70.587-70.587-106.039-70.587-170.413 25.068-124.894 70.587-170.413 106.039-70.587 170.413-70.587 124.894 25.068 170.413 70.587 70.587 106.039 70.587 170.413-25.068 124.894-70.587 170.413z"/><path d="m336.118 445.661c-23.082 9.763-47.478 15.131-72.618 16.024v-26.289c0-4.142-3.358-7.5-7.5-7.5s-7.5 3.358-7.5 7.5v26.286c-51.103-1.84-97.511-22.395-132.569-55.007l18.52-18.52c2.929-2.929 2.929-7.678 0-10.607s-7.678-2.929-10.607 0l-18.52 18.52c-32.612-35.057-53.166-81.465-55.006-132.568h26.287c4.142 0 7.5-3.358 7.5-7.5s-3.358-7.5-7.5-7.5h-26.29c1.802-49.93 21.536-96.786 54.925-132.654l18.605 18.605c1.464 1.465 3.384 2.197 5.303 2.197s3.839-.732 5.303-2.196c2.929-2.929 2.929-7.678 0-10.607l-18.599-18.599c8.259-7.67 17.194-14.736 26.785-21.076 3.455-2.284 4.404-6.937 2.12-10.393-2.285-3.455-6.937-4.405-10.392-2.12-62.115 41.064-99.198 109.978-99.198 184.343 0 58.987 22.971 114.443 64.681 156.153s97.166 64.681 156.153 64.681c29.809 0 58.73-5.84 85.96-17.357 3.815-1.614 5.6-6.014 3.986-9.829-1.614-3.816-6.015-5.601-9.829-3.987z"/><path d="m412.153 99.847c-41.71-41.71-97.166-64.68-156.153-64.68-32.955 0-64.66 7.086-94.235 21.06-3.745 1.77-5.347 6.24-3.577 9.985 1.769 3.746 6.24 5.346 9.985 3.577 25.305-11.957 52.295-18.485 80.327-19.474v26.289c0 4.142 3.358 7.5 7.5 7.5s7.5-3.358 7.5-7.5v-26.286c51.103 1.84 97.511 22.395 132.569 55.007l-18.52 18.52c-2.929 2.929-2.929 7.678 0 10.607 1.464 1.464 3.384 2.196 5.303 2.196s3.839-.732 5.303-2.197l18.52-18.52c32.613 35.058 53.167 81.466 55.007 132.569h-26.287c-4.142 0-7.5 3.358-7.5 7.5s3.358 7.5 7.5 7.5h26.291c-1.216 33.407-10.521 66.086-27.119 94.949-7.819 13.598-17.188 26.234-27.834 37.678l-18.578-18.579c-2.929-2.929-7.678-2.929-10.607 0s-2.929 7.678 0 10.607l18.574 18.574c-10.23 9.517-21.409 18.026-33.396 25.31-3.54 2.151-4.666 6.764-2.515 10.304 1.412 2.323 3.883 3.607 6.417 3.606 1.327 0 2.67-.352 3.887-1.091 31.843-19.349 58.489-46.643 77.055-78.931 19.144-33.293 29.263-71.305 29.263-109.927 0-58.987-22.97-114.443-64.68-156.153z"/><path d="m341.555 156.945-75.861 75.861c-2.937-1.408-6.225-2.199-9.694-2.199s-6.757.79-9.695 2.199l-41.056-41.055c-2.929-2.929-7.678-2.929-10.606 0-2.929 2.929-2.929 7.678 0 10.606l41.056 41.055c-1.409 2.938-2.199 6.225-2.199 9.695 0 12.407 10.093 22.5 22.5 22.5s22.5-10.094 22.5-22.5c0-3.469-.79-6.757-2.199-9.695l75.861-75.861c2.929-2.929 2.929-7.678 0-10.607-2.929-2.928-7.678-2.928-10.607.001zm-85.555 103.662c-4.136 0-7.5-3.365-7.5-7.5s3.364-7.5 7.5-7.5 7.5 3.365 7.5 7.5c0 4.136-3.364 7.5-7.5 7.5z"/><path d="m282.5 342.5c4.142 0 7.5-3.358 7.5-7.5s-3.358-7.5-7.5-7.5h-53c-4.142 0-7.5 3.358-7.5 7.5s3.358 7.5 7.5 7.5z"/></g></svg>