<svg width="26" height="26" viewBox="0 0 26 26" fill="none" xmlns="http://www.w3.org/2000/svg">
<path d="M13.3032 12.5391C12.5592 12.5391 11.8319 12.3184 11.2133 11.9051C10.5947 11.4918 10.1126 10.9043 9.82785 10.2169C9.54313 9.52953 9.46864 8.77317 9.61379 8.04347C9.75893 7.31377 10.1172 6.64349 10.6433 6.11741C11.1694 5.59132 11.8396 5.23305 12.5693 5.08791C13.2991 4.94276 14.0554 5.01725 14.7428 5.30197C15.4301 5.58669 16.0176 6.06884 16.431 6.68745C16.8443 7.30606 17.0649 8.03335 17.0649 8.77735C17.0637 9.77464 16.667 10.7307 15.9618 11.4359C15.2566 12.1411 14.3005 12.5378 13.3032 12.5391ZM13.3032 5.85156C12.7246 5.85156 12.1589 6.02316 11.6777 6.34465C11.1966 6.66614 10.8216 7.12308 10.6002 7.6577C10.3787 8.19231 10.3208 8.78059 10.4337 9.34814C10.5466 9.91568 10.8252 10.437 11.2344 10.8462C11.6436 11.2554 12.1649 11.534 12.7324 11.6469C13.3 11.7598 13.8883 11.7019 14.4229 11.4804C14.9575 11.259 15.4144 10.884 15.7359 10.4028C16.0574 9.92168 16.229 9.35601 16.229 8.77735C16.2281 8.00165 15.9196 7.25798 15.3711 6.70948C14.8226 6.16098 14.0789 5.85245 13.3032 5.85156Z" fill="#DFC693"/>
<path d="M25.7896 24.457L21.61 16.9336C21.5737 16.8685 21.5208 16.8142 21.4565 16.7764C21.3923 16.7387 21.3192 16.7187 21.2446 16.7188H18.0727C20.1161 14.1691 22.0806 11.1075 22.0806 8.77734C22.0806 6.44945 21.1558 4.2169 19.5098 2.57082C17.8637 0.924753 15.6311 0 13.3032 0C10.9753 0 8.74279 0.924753 7.09672 2.57082C5.45065 4.2169 4.5259 6.44945 4.5259 8.77734C4.5259 11.1075 6.49244 14.1691 8.5338 16.7188H5.36183C5.28732 16.7187 5.21416 16.7387 5.14993 16.7764C5.08571 16.8142 5.03274 16.8685 4.99653 16.9336L0.816841 24.457C0.781461 24.5206 0.763311 24.5924 0.764191 24.6652C0.76507 24.738 0.784947 24.8093 0.821855 24.8721C0.858762 24.9348 0.91142 24.9868 0.974614 25.023C1.03781 25.0591 1.10935 25.0781 1.18215 25.0781H25.4243C25.4971 25.0781 25.5687 25.0591 25.6319 25.023C25.6951 24.9868 25.7477 24.9348 25.7846 24.8721C25.8215 24.8093 25.8414 24.738 25.8423 24.6652C25.8432 24.5924 25.825 24.5206 25.7896 24.457ZM13.3032 0.835938C15.4087 0.838261 17.4273 1.67569 18.9161 3.16449C20.4049 4.65329 21.2423 6.67186 21.2446 8.77734C21.2446 12.6891 14.7594 19.2985 13.3032 20.7312C11.8462 19.298 5.36183 12.6908 5.36183 8.77734C5.36416 6.67186 6.20158 4.65329 7.69038 3.16449C9.17918 1.67569 11.1978 0.838261 13.3032 0.835938ZM7.95324 22.5703L8.52419 21.3164H10.7975L10.3528 22.5703H7.95324ZM4.73488 22.5703L5.4308 21.3164H7.60716L7.03663 22.5703H4.73488ZM11.3049 19.8903L11.0951 20.4805H8.90579L9.47632 19.2266H10.6884C10.9024 19.4615 11.1093 19.6834 11.3049 19.8903ZM7.9871 20.4805H5.89433L6.59024 19.2266H8.55804L7.9871 20.4805ZM11.9524 20.5641C12.5421 21.1672 12.9446 21.5517 13.0157 21.6194C13.0933 21.693 13.1962 21.7341 13.3032 21.7341C13.4102 21.7341 13.5132 21.693 13.5908 21.6194C13.6619 21.5517 14.0639 21.1676 14.6533 20.5649L15.3638 22.5711H11.241L11.9524 20.5641ZM16.2524 22.5703L15.8073 21.3164H18.081L18.6532 22.5703H16.2524ZM19.5703 22.5703L18.9997 21.3164H21.1761L21.8716 22.5703H19.5703ZM18.6194 20.4805L18.0484 19.2266H20.0162L20.7122 20.4805H18.6194ZM17.1302 19.2266L17.7007 20.4805H15.5105L15.3015 19.8911C15.4972 19.6821 15.7041 19.4615 15.9193 19.2266H17.1302ZM1.89269 24.2422L5.6076 17.5547H9.21969C9.46211 17.8435 9.70244 18.1227 9.93776 18.3906H6.34322C6.26867 18.3907 6.19548 18.4106 6.13125 18.4485C6.06702 18.4863 6.01408 18.5407 5.97792 18.6059L3.65778 22.7856C3.62244 22.8493 3.60438 22.9211 3.60536 22.9939C3.60635 23.0668 3.62636 23.1381 3.6634 23.2008C3.70044 23.2635 3.75324 23.3155 3.81655 23.3515C3.87986 23.3876 3.95149 23.4064 4.02433 23.4062H22.5821C22.6549 23.4063 22.7264 23.3873 22.7896 23.3512C22.8528 23.3151 22.9055 23.2632 22.9425 23.2005C22.9794 23.1378 22.9993 23.0665 23.0003 22.9937C23.0012 22.921 22.9832 22.8492 22.9479 22.7856L20.6277 18.6059C20.5916 18.5407 20.5386 18.4863 20.4744 18.4485C20.4102 18.4106 20.337 18.3907 20.2624 18.3906H16.6679C16.9032 18.1227 17.1435 17.8435 17.386 17.5547H20.998L24.7138 24.2422H1.89269Z" fill="#DFC693"/>
</svg>
