<svg width="24" height="25" viewBox="0 0 24 25" fill="none" xmlns="http://www.w3.org/2000/svg">
<path d="M9.81457 3.84554C11.0212 2.6389 12.9776 2.6389 14.1842 3.84554C15.3909 5.05219 15.3909 7.00854 14.1842 8.21519L11.9994 10.4L9.81457 8.21519C8.60792 7.00854 8.60792 5.05219 9.81457 3.84554Z" stroke="#1E1F1E"/>
<path d="M16.7376 10.7684C17.9442 9.56175 19.9006 9.56175 21.1072 10.7684C22.3139 11.975 22.3139 13.9314 21.1072 15.138C19.9006 16.3447 17.9442 16.3447 16.7376 15.138L14.5528 12.9532L16.7376 10.7684Z" stroke="#1E1F1E"/>
<path d="M2.89181 10.7684C4.09845 9.56175 6.05481 9.56175 7.26145 10.7684L9.44627 12.9532L7.26145 15.138C6.05481 16.3447 4.09845 16.3447 2.89181 15.138C1.68516 13.9314 1.68516 11.975 2.89181 10.7684Z" stroke="#1E1F1E"/>
<path d="M11.9994 15.5074L14.1842 17.6922C15.3909 18.8989 15.3909 20.8552 14.1842 22.0619C12.9776 23.2685 11.0212 23.2685 9.81457 22.0619C8.60792 20.8552 8.60792 18.8989 9.81457 17.6922L11.9994 15.5074Z" stroke="#1E1F1E"/>
</svg>
